<svg width="1090" height="503" viewBox="0 0 1090 503" fill="none" xmlns="http://www.w3.org/2000/svg">
<g opacity="0.7" style="mix-blend-mode:soft-light">
<path d="M31.7417 7.32544H7.32422V31.7429M31.7417 7.32544V31.7429M31.7417 7.32544H56.1592M31.7417 31.7429H7.32422M31.7417 31.7429V56.1604M31.7417 31.7429H56.1592M7.32422 31.7429V56.1604M31.7417 56.1604H7.32422M31.7417 56.1604V80.5779M31.7417 56.1604H56.1592M7.32422 56.1604V80.5779M31.7417 80.5779H7.32422M31.7417 80.5779V104.995M31.7417 80.5779H56.1592M7.32422 80.5779V104.995M31.7417 104.995H7.32422M31.7417 104.995V129.413M31.7417 104.995H56.1592M7.32422 104.995V129.413M31.7417 129.413H7.32422M31.7417 129.413V153.83M31.7417 129.413H56.1592M7.32422 129.413V153.83M31.7417 153.83H7.32422M31.7417 153.83V178.248M31.7417 153.83H56.1592M7.32422 153.83V178.248M31.7417 178.248H7.32422M31.7417 178.248V202.665M31.7417 178.248H56.1592M7.32422 178.248V202.665M31.7417 202.665H7.32422M31.7417 202.665V227.083M31.7417 202.665H56.1592M7.32422 202.665V227.083M31.7417 227.083H7.32422M31.7417 227.083V251.5M31.7417 227.083H56.1592M7.32422 227.083V251.5M31.7417 251.5H7.32422M31.7417 251.5V275.918M31.7417 251.5H56.1592M7.32422 251.5V275.918M31.7417 275.918H7.32422M31.7417 275.918V300.335M31.7417 275.918H56.1592M7.32422 275.918V300.335M31.7417 300.335H7.32422M31.7417 300.335V324.753M31.7417 300.335H56.1592M7.32422 300.335V324.753M31.7417 324.753H7.32422M31.7417 324.753V349.17M31.7417 324.753H56.1592M7.32422 324.753V349.17M31.7417 349.17H7.32422M31.7417 349.17V373.588M31.7417 349.17H56.1592M7.32422 349.17V373.588M31.7417 373.588H7.32422M31.7417 373.588V398.005M31.7417 373.588H56.1592M7.32422 373.588V398.005M31.7417 398.005H7.32422M31.7417 398.005V422.423M31.7417 398.005H56.1592M7.32422 398.005V422.423M31.7417 422.423H7.32422M31.7417 422.423V446.84M31.7417 422.423H56.1592M7.32422 422.423V446.84M31.7417 446.84H7.32422M31.7417 446.84V471.257M31.7417 446.84H56.1592M7.32422 446.84V471.257M31.7417 471.257H7.32422M31.7417 471.257V495.675M31.7417 471.257H56.1592M7.32422 471.257V495.675H31.7417M31.7417 495.675H56.1592M56.1592 7.32544V31.7429M56.1592 7.32544H80.5766M56.1592 31.7429V56.1604M56.1592 31.7429H80.5766M56.1592 56.1604V80.5779M56.1592 56.1604H80.5766M56.1592 80.5779V104.995M56.1592 80.5779H80.5766M56.1592 104.995V129.413M56.1592 104.995H80.5766M56.1592 129.413V153.83M56.1592 129.413H80.5766M56.1592 153.83V178.248M56.1592 153.83H80.5766M56.1592 178.248V202.665M56.1592 178.248H80.5766M56.1592 202.665V227.083M56.1592 202.665H80.5766M56.1592 227.083V251.5M56.1592 227.083H80.5766M56.1592 251.5V275.918M56.1592 251.5H80.5766M56.1592 275.918V300.335M56.1592 275.918H80.5766M56.1592 300.335V324.753M56.1592 300.335H80.5766M56.1592 324.753V349.17M56.1592 324.753H80.5766M56.1592 349.17V373.588M56.1592 349.17H80.5766M56.1592 373.588V398.005M56.1592 373.588H80.5766M56.1592 398.005V422.423M56.1592 398.005H80.5766M56.1592 422.423V446.84M56.1592 422.423H80.5766M56.1592 446.84V471.257M56.1592 446.84H80.5766M56.1592 471.257V495.675M56.1592 471.257H80.5766M56.1592 495.675H80.5766M80.5766 7.32544V31.7429M80.5766 7.32544H104.994M80.5766 31.7429V56.1604M80.5766 31.7429H104.994M80.5766 56.1604V80.5779M80.5766 56.1604H104.994M80.5766 80.5779V104.995M80.5766 80.5779H104.994M80.5766 104.995V129.413M80.5766 104.995H104.994M80.5766 129.413V153.83M80.5766 129.413H104.994M80.5766 153.83V178.248M80.5766 153.83H104.994M80.5766 178.248V202.665M80.5766 178.248H104.994M80.5766 202.665V227.083M80.5766 202.665H104.994M80.5766 227.083V251.5M80.5766 227.083H104.994M80.5766 251.5V275.918M80.5766 251.5H104.994M80.5766 275.918V300.335M80.5766 275.918H104.994M80.5766 300.335V324.753M80.5766 300.335H104.994M80.5766 324.753V349.17M80.5766 324.753H104.994M80.5766 349.17V373.588M80.5766 349.17H104.994M80.5766 373.588V398.005M80.5766 373.588H104.994M80.5766 398.005V422.423M80.5766 398.005H104.994M80.5766 422.423V446.84M80.5766 422.423H104.994M80.5766 446.84V471.257M80.5766 446.84H104.994M80.5766 471.257V495.675M80.5766 471.257H104.994M80.5766 495.675H104.994M104.994 7.32544V31.7429M104.994 7.32544H129.412M104.994 31.7429V56.1604M104.994 31.7429H129.412M104.994 56.1604V80.5779M104.994 56.1604H129.412M104.994 80.5779V104.995M104.994 80.5779H129.412M104.994 104.995V129.413M104.994 104.995H129.412M104.994 129.413V153.83M104.994 129.413H129.412M104.994 153.83V178.248M104.994 153.83H129.412M104.994 178.248V202.665M104.994 178.248H129.412M104.994 202.665V227.083M104.994 202.665H129.412M104.994 227.083V251.5M104.994 227.083H129.412M104.994 251.5V275.918M104.994 251.5H129.412M104.994 275.918V300.335M104.994 275.918H129.412M104.994 300.335V324.753M104.994 300.335H129.412M104.994 324.753V349.17M104.994 324.753H129.412M104.994 349.17V373.588M104.994 349.17H129.412M104.994 373.588V398.005M104.994 373.588H129.412M104.994 398.005V422.423M104.994 398.005H129.412M104.994 422.423V446.84M104.994 422.423H129.412M104.994 446.84V471.257M104.994 446.84H129.412M104.994 471.257V495.675M104.994 471.257H129.412M104.994 495.675H129.412M129.412 7.32544V31.7429M129.412 7.32544H153.829M129.412 31.7429V56.1604M129.412 31.7429H153.829M129.412 56.1604V80.5779M129.412 56.1604H153.829M129.412 80.5779V104.995M129.412 80.5779H153.829M129.412 104.995V129.413M129.412 104.995H153.829M129.412 129.413V153.83M129.412 129.413H153.829M129.412 153.83V178.248M129.412 153.83H153.829M129.412 178.248V202.665M129.412 178.248H153.829M129.412 202.665V227.083M129.412 202.665H153.829M129.412 227.083V251.5M129.412 227.083H153.829M129.412 251.5V275.918M129.412 251.5H153.829M129.412 275.918V300.335M129.412 275.918H153.829M129.412 300.335V324.753M129.412 300.335H153.829M129.412 324.753V349.17M129.412 324.753H153.829M129.412 349.17V373.588M129.412 349.17H153.829M129.412 373.588V398.005M129.412 373.588H153.829M129.412 398.005V422.423M129.412 398.005H153.829M129.412 422.423V446.84M129.412 422.423H153.829M129.412 446.84V471.257M129.412 446.84H153.829M129.412 471.257V495.675M129.412 471.257H153.829M129.412 495.675H153.829M153.829 7.32544V31.7429M153.829 7.32544H178.247M153.829 31.7429V56.1604M153.829 31.7429H178.247M153.829 56.1604V80.5779M153.829 56.1604H178.247M153.829 80.5779V104.995M153.829 80.5779H178.247M153.829 104.995V129.413M153.829 104.995H178.247M153.829 129.413V153.83M153.829 129.413H178.247M153.829 153.83V178.248M153.829 153.83H178.247M153.829 178.248V202.665M153.829 178.248H178.247M153.829 202.665V227.083M153.829 202.665H178.247M153.829 227.083V251.5M153.829 227.083H178.247M153.829 251.5V275.918M153.829 251.5H178.247M153.829 275.918V300.335M153.829 275.918H178.247M153.829 300.335V324.753M153.829 300.335H178.247M153.829 324.753V349.17M153.829 324.753H178.247M153.829 349.17V373.588M153.829 349.17H178.247M153.829 373.588V398.005M153.829 373.588H178.247M153.829 398.005V422.423M153.829 398.005H178.247M153.829 422.423V446.84M153.829 422.423H178.247M153.829 446.84V471.257M153.829 446.84H178.247M153.829 471.257V495.675M153.829 471.257H178.247M153.829 495.675H178.247M178.247 7.32544V31.7429M178.247 7.32544H202.664M178.247 31.7429V56.1604M178.247 31.7429H202.664M178.247 56.1604V80.5779M178.247 56.1604H202.664M178.247 80.5779V104.995M178.247 80.5779H202.664M178.247 104.995V129.413M178.247 104.995H202.664M178.247 129.413V153.83M178.247 129.413H202.664M178.247 153.83V178.248M178.247 153.83H202.664M178.247 178.248V202.665M178.247 178.248H202.664M178.247 202.665V227.083M178.247 202.665H202.664M178.247 227.083V251.5M178.247 227.083H202.664M178.247 251.5V275.918M178.247 251.5H202.664M178.247 275.918V300.335M178.247 275.918H202.664M178.247 300.335V324.753M178.247 300.335H202.664M178.247 324.753V349.17M178.247 324.753H202.664M178.247 349.17V373.588M178.247 349.17H202.664M178.247 373.588V398.005M178.247 373.588H202.664M178.247 398.005V422.423M178.247 398.005H202.664M178.247 422.423V446.84M178.247 422.423H202.664M178.247 446.84V471.257M178.247 446.84H202.664M178.247 471.257V495.675M178.247 471.257H202.664M178.247 495.675H202.664M202.664 7.32544V31.7429M202.664 7.32544H227.081M202.664 31.7429V56.1604M202.664 31.7429H227.081M202.664 56.1604V80.5779M202.664 56.1604H227.081M202.664 80.5779V104.995M202.664 80.5779H227.081M202.664 104.995V129.413M202.664 104.995H227.081M202.664 129.413V153.83M202.664 129.413H227.081M202.664 153.83V178.248M202.664 153.83H227.081M202.664 178.248V202.665M202.664 178.248H227.081M202.664 202.665V227.083M202.664 202.665H227.081M202.664 227.083V251.5M202.664 227.083H227.081M202.664 251.5V275.918M202.664 251.5H227.081M202.664 275.918V300.335M202.664 275.918H227.081M202.664 300.335V324.753M202.664 300.335H227.081M202.664 324.753V349.17M202.664 324.753H227.081M202.664 349.17V373.588M202.664 349.17H227.081M202.664 373.588V398.005M202.664 373.588H227.081M202.664 398.005V422.423M202.664 398.005H227.081M202.664 422.423V446.84M202.664 422.423H227.081M202.664 446.84V471.257M202.664 446.84H227.081M202.664 471.257V495.675M202.664 471.257H227.081M202.664 495.675H227.081M227.081 7.32544V31.7429M227.081 7.32544H251.499M227.081 31.7429V56.1604M227.081 31.7429H251.499M227.081 56.1604V80.5779M227.081 56.1604H251.499M227.081 80.5779V104.995M227.081 80.5779H251.499M227.081 104.995V129.413M227.081 104.995H251.499M227.081 129.413V153.83M227.081 129.413H251.499M227.081 153.83V178.248M227.081 153.83H251.499M227.081 178.248V202.665M227.081 178.248H251.499M227.081 202.665V227.083M227.081 202.665H251.499M227.081 227.083V251.5M227.081 227.083H251.499M227.081 251.5V275.918M227.081 251.5H251.499M227.081 275.918V300.335M227.081 275.918H251.499M227.081 300.335V324.753M227.081 300.335H251.499M227.081 324.753V349.17M227.081 324.753H251.499M227.081 349.17V373.588M227.081 349.17H251.499M227.081 373.588V398.005M227.081 373.588H251.499M227.081 398.005V422.423M227.081 398.005H251.499M227.081 422.423V446.84M227.081 422.423H251.499M227.081 446.84V471.257M227.081 446.84H251.499M227.081 471.257V495.675M227.081 471.257H251.499M227.081 495.675H251.499M251.499 7.32544V31.7429M251.499 7.32544H275.916M251.499 31.7429V56.1604M251.499 31.7429H275.916M251.499 56.1604V80.5779M251.499 56.1604H275.916M251.499 80.5779V104.995M251.499 80.5779H275.916M251.499 104.995V129.413M251.499 104.995H275.916M251.499 129.413V153.83M251.499 129.413H275.916M251.499 153.83V178.248M251.499 153.83H275.916M251.499 178.248V202.665M251.499 178.248H275.916M251.499 202.665V227.083M251.499 202.665H275.916M251.499 227.083V251.5M251.499 227.083H275.916M251.499 251.5V275.918M251.499 251.5H275.916M251.499 275.918V300.335M251.499 275.918H275.916M251.499 300.335V324.753M251.499 300.335H275.916M251.499 324.753V349.17M251.499 324.753H275.916M251.499 349.17V373.588M251.499 349.17H275.916M251.499 373.588V398.005M251.499 373.588H275.916M251.499 398.005V422.423M251.499 398.005H275.916M251.499 422.423V446.84M251.499 422.423H275.916M251.499 446.84V471.257M251.499 446.84H275.916M251.499 471.257V495.675M251.499 471.257H275.916M251.499 495.675H275.916M275.916 7.32544V31.7429M275.916 7.32544H300.334M275.916 31.7429V56.1604M275.916 31.7429H300.334M275.916 56.1604V80.5779M275.916 56.1604H300.334M275.916 80.5779V104.995M275.916 80.5779H300.334M275.916 104.995V129.413M275.916 104.995H300.334M275.916 129.413V153.83M275.916 129.413H300.334M275.916 153.83V178.248M275.916 153.83H300.334M275.916 178.248V202.665M275.916 178.248H300.334M275.916 202.665V227.083M275.916 202.665H300.334M275.916 227.083V251.5M275.916 227.083H300.334M275.916 251.5V275.918M275.916 251.5H300.334M275.916 275.918V300.335M275.916 275.918H300.334M275.916 300.335V324.753M275.916 300.335H300.334M275.916 324.753V349.17M275.916 324.753H300.334M275.916 349.17V373.588M275.916 349.17H300.334M275.916 373.588V398.005M275.916 373.588H300.334M275.916 398.005V422.423M275.916 398.005H300.334M275.916 422.423V446.84M275.916 422.423H300.334M275.916 446.84V471.257M275.916 446.84H300.334M275.916 471.257V495.675M275.916 471.257H300.334M275.916 495.675H300.334M300.334 7.32544V31.7429M300.334 7.32544H324.751M300.334 31.7429V56.1604M300.334 31.7429H324.751M300.334 56.1604V80.5779M300.334 56.1604H324.751M300.334 80.5779V104.995M300.334 80.5779H324.751M300.334 104.995V129.413M300.334 104.995H324.751M300.334 129.413V153.83M300.334 129.413H324.751M300.334 153.83V178.248M300.334 153.83H324.751M300.334 178.248V202.665M300.334 178.248H324.751M300.334 202.665V227.083M300.334 202.665H324.751M300.334 227.083V251.5M300.334 227.083H324.751M300.334 251.5V275.918M300.334 251.5H324.751M300.334 275.918V300.335M300.334 275.918H324.751M300.334 300.335V324.753M300.334 300.335H324.751M300.334 324.753V349.17M300.334 324.753H324.751M300.334 349.17V373.588M300.334 349.17H324.751M300.334 373.588V398.005M300.334 373.588H324.751M300.334 398.005V422.423M300.334 398.005H324.751M300.334 422.423V446.84M300.334 422.423H324.751M300.334 446.84V471.257M300.334 446.84H324.751M300.334 471.257V495.675M300.334 471.257H324.751M300.334 495.675H324.751M324.751 7.32544V31.7429M324.751 7.32544H349.169M324.751 31.7429V56.1604M324.751 31.7429H349.169M324.751 56.1604V80.5779M324.751 56.1604H349.169M324.751 80.5779V104.995M324.751 80.5779H349.169M324.751 104.995V129.413M324.751 104.995H349.169M324.751 129.413V153.83M324.751 129.413H349.169M324.751 153.83V178.248M324.751 153.83H349.169M324.751 178.248V202.665M324.751 178.248H349.169M324.751 202.665V227.083M324.751 202.665H349.169M324.751 227.083V251.5M324.751 227.083H349.169M324.751 251.5V275.918M324.751 251.5H349.169M324.751 275.918V300.335M324.751 275.918H349.169M324.751 300.335V324.753M324.751 300.335H349.169M324.751 324.753V349.17M324.751 324.753H349.169M324.751 349.17V373.588M324.751 349.17H349.169M324.751 373.588V398.005M324.751 373.588H349.169M324.751 398.005V422.423M324.751 398.005H349.169M324.751 422.423V446.84M324.751 422.423H349.169M324.751 446.84V471.257M324.751 446.84H349.169M324.751 471.257V495.675M324.751 471.257H349.169M324.751 495.675H349.169M349.169 7.32544V31.7429M349.169 7.32544H373.586M349.169 31.7429V56.1604M349.169 31.7429H373.586M349.169 56.1604V80.5779M349.169 56.1604H373.586M349.169 80.5779V104.995M349.169 80.5779H373.586M349.169 104.995V129.413M349.169 104.995H373.586M349.169 129.413V153.83M349.169 129.413H373.586M349.169 153.83V178.248M349.169 153.83H373.586M349.169 178.248V202.665M349.169 178.248H373.586M349.169 202.665V227.083M349.169 202.665H373.586M349.169 227.083V251.5M349.169 227.083H373.586M349.169 251.5V275.918M349.169 251.5H373.586M349.169 275.918V300.335M349.169 275.918H373.586M349.169 300.335V324.753M349.169 300.335H373.586M349.169 324.753V349.17M349.169 324.753H373.586M349.169 349.17V373.588M349.169 349.17H373.586M349.169 373.588V398.005M349.169 373.588H373.586M349.169 398.005V422.423M349.169 398.005H373.586M349.169 422.423V446.84M349.169 422.423H373.586M349.169 446.84V471.257M349.169 446.84H373.586M349.169 471.257V495.675M349.169 471.257H373.586M349.169 495.675H373.586M373.586 7.32544V31.7429M373.586 7.32544H398.004M373.586 31.7429V56.1604M373.586 31.7429H398.004M373.586 56.1604V80.5779M373.586 56.1604H398.004M373.586 80.5779V104.995M373.586 80.5779H398.004M373.586 104.995V129.413M373.586 104.995H398.004M373.586 129.413V153.83M373.586 129.413H398.004M373.586 153.83V178.248M373.586 153.83H398.004M373.586 178.248V202.665M373.586 178.248H398.004M373.586 202.665V227.083M373.586 202.665H398.004M373.586 227.083V251.5M373.586 227.083H398.004M373.586 251.5V275.918M373.586 251.5H398.004M373.586 275.918V300.335M373.586 275.918H398.004M373.586 300.335V324.753M373.586 300.335H398.004M373.586 324.753V349.17M373.586 324.753H398.004M373.586 349.17V373.588M373.586 349.17H398.004M373.586 373.588V398.005M373.586 373.588H398.004M373.586 398.005V422.423M373.586 398.005H398.004M373.586 422.423V446.84M373.586 422.423H398.004M373.586 446.84V471.257M373.586 446.84H398.004M373.586 471.257V495.675M373.586 471.257H398.004M373.586 495.675H398.004M398.004 7.32544V31.7429M398.004 7.32544H422.421M398.004 31.7429V56.1604M398.004 31.7429H422.421M398.004 56.1604V80.5779M398.004 56.1604H422.421M398.004 80.5779V104.995M398.004 80.5779H422.421M398.004 104.995V129.413M398.004 104.995H422.421M398.004 129.413V153.83M398.004 129.413H422.421M398.004 153.83V178.248M398.004 153.83H422.421M398.004 178.248V202.665M398.004 178.248H422.421M398.004 202.665V227.083M398.004 202.665H422.421M398.004 227.083V251.5M398.004 227.083H422.421M398.004 251.5V275.918M398.004 251.5H422.421M398.004 275.918V300.335M398.004 275.918H422.421M398.004 300.335V324.753M398.004 300.335H422.421M398.004 324.753V349.17M398.004 324.753H422.421M398.004 349.17V373.588M398.004 349.17H422.421M398.004 373.588V398.005M398.004 373.588H422.421M398.004 398.005V422.423M398.004 398.005H422.421M398.004 422.423V446.84M398.004 422.423H422.421M398.004 446.84V471.257M398.004 446.84H422.421M398.004 471.257V495.675M398.004 471.257H422.421M398.004 495.675H422.421M422.421 7.32544V31.7429M422.421 7.32544H446.839M422.421 31.7429V56.1604M422.421 31.7429H446.839M422.421 56.1604V80.5779M422.421 56.1604H446.839M422.421 80.5779V104.995M422.421 80.5779H446.839M422.421 104.995V129.413M422.421 104.995H446.839M422.421 129.413V153.83M422.421 129.413H446.839M422.421 153.83V178.248M422.421 153.83H446.839M422.421 178.248V202.665M422.421 178.248H446.839M422.421 202.665V227.083M422.421 202.665H446.839M422.421 227.083V251.5M422.421 227.083H446.839M422.421 251.5V275.918M422.421 251.5H446.839M422.421 275.918V300.335M422.421 275.918H446.839M422.421 300.335V324.753M422.421 300.335H446.839M422.421 324.753V349.17M422.421 324.753H446.839M422.421 349.17V373.588M422.421 349.17H446.839M422.421 373.588V398.005M422.421 373.588H446.839M422.421 398.005V422.423M422.421 398.005H446.839M422.421 422.423V446.84M422.421 422.423H446.839M422.421 446.84V471.257M422.421 446.84H446.839M422.421 471.257V495.675M422.421 471.257H446.839M422.421 495.675H446.839M446.839 7.32544V31.7429M446.839 7.32544H471.256M446.839 31.7429V56.1604M446.839 31.7429H471.256M446.839 56.1604V80.5779M446.839 56.1604H471.256M446.839 80.5779V104.995M446.839 80.5779H471.256M446.839 104.995V129.413M446.839 104.995H471.256M446.839 129.413V153.83M446.839 129.413H471.256M446.839 153.83V178.248M446.839 153.83H471.256M446.839 178.248V202.665M446.839 178.248H471.256M446.839 202.665V227.083M446.839 202.665H471.256M446.839 227.083V251.5M446.839 227.083H471.256M446.839 251.5V275.918M446.839 251.5H471.256M446.839 275.918V300.335M446.839 275.918H471.256M446.839 300.335V324.753M446.839 300.335H471.256M446.839 324.753V349.17M446.839 324.753H471.256M446.839 349.17V373.588M446.839 349.17H471.256M446.839 373.588V398.005M446.839 373.588H471.256M446.839 398.005V422.423M446.839 398.005H471.256M446.839 422.423V446.84M446.839 422.423H471.256M446.839 446.84V471.257M446.839 446.84H471.256M446.839 471.257V495.675M446.839 471.257H471.256M446.839 495.675H471.256M471.256 7.32544V31.7429M471.256 7.32544H495.674M471.256 31.7429V56.1604M471.256 31.7429H495.674M471.256 56.1604V80.5779M471.256 56.1604H495.674M471.256 80.5779V104.995M471.256 80.5779H495.674M471.256 104.995V129.413M471.256 104.995H495.674M471.256 129.413V153.83M471.256 129.413H495.674M471.256 153.83V178.248M471.256 153.83H495.674M471.256 178.248V202.665M471.256 178.248H495.674M471.256 202.665V227.083M471.256 202.665H495.674M471.256 227.083V251.5M471.256 227.083H495.674M471.256 251.5V275.918M471.256 251.5H495.674M471.256 275.918V300.335M471.256 275.918H495.674M471.256 300.335V324.753M471.256 300.335H495.674M471.256 324.753V349.17M471.256 324.753H495.674M471.256 349.17V373.588M471.256 349.17H495.674M471.256 373.588V398.005M471.256 373.588H495.674M471.256 398.005V422.423M471.256 398.005H495.674M471.256 422.423V446.84M471.256 422.423H495.674M471.256 446.84V471.257M471.256 446.84H495.674M471.256 471.257V495.675M471.256 471.257H495.674M471.256 495.675H495.674M495.674 7.32544V31.7429M495.674 7.32544H520.091M495.674 31.7429V56.1604M495.674 31.7429H520.091M495.674 56.1604V80.5779M495.674 56.1604H520.091M495.674 80.5779V104.995M495.674 80.5779H520.091M495.674 104.995V129.413M495.674 104.995H520.091M495.674 129.413V153.83M495.674 129.413H520.091M495.674 153.83V178.248M495.674 153.83H520.091M495.674 178.248V202.665M495.674 178.248H520.091M495.674 202.665V227.083M495.674 202.665H520.091M495.674 227.083V251.5M495.674 227.083H520.091M495.674 251.5V275.918M495.674 251.5H520.091M495.674 275.918V300.335M495.674 275.918H520.091M495.674 300.335V324.753M495.674 300.335H520.091M495.674 324.753V349.17M495.674 324.753H520.091M495.674 349.17V373.588M495.674 349.17H520.091M495.674 373.588V398.005M495.674 373.588H520.091M495.674 398.005V422.423M495.674 398.005H520.091M495.674 422.423V446.84M495.674 422.423H520.091M495.674 446.84V471.257M495.674 446.84H520.091M495.674 471.257V495.675M495.674 471.257H520.091M495.674 495.675H520.091M520.091 7.32544V31.7429M520.091 7.32544H544.509M520.091 31.7429V56.1604M520.091 31.7429H544.509M520.091 56.1604V80.5779M520.091 56.1604H544.509M520.091 80.5779V104.995M520.091 80.5779H544.509M520.091 104.995V129.413M520.091 104.995H544.509M520.091 129.413V153.83M520.091 129.413H544.509M520.091 153.83V178.248M520.091 153.83H544.509M520.091 178.248V202.665M520.091 178.248H544.509M520.091 202.665V227.083M520.091 202.665H544.509M520.091 227.083V251.5M520.091 227.083H544.509M520.091 251.5V275.918M520.091 251.5H544.509M520.091 275.918V300.335M520.091 275.918H544.509M520.091 300.335V324.753M520.091 300.335H544.509M520.091 324.753V349.17M520.091 324.753H544.509M520.091 349.17V373.588M520.091 349.17H544.509M520.091 373.588V398.005M520.091 373.588H544.509M520.091 398.005V422.423M520.091 398.005H544.509M520.091 422.423V446.84M520.091 422.423H544.509M520.091 446.84V471.257M520.091 446.84H544.509M520.091 471.257V495.675M520.091 471.257H544.509M520.091 495.675H544.509M544.509 7.32544V31.7429M544.509 7.32544H568.926M544.509 31.7429V56.1604M544.509 31.7429H568.926M544.509 56.1604V80.5779M544.509 56.1604H568.926M544.509 80.5779V104.995M544.509 80.5779H568.926M544.509 104.995V129.413M544.509 104.995H568.926M544.509 129.413V153.83M544.509 129.413H568.926M544.509 153.83V178.248M544.509 153.83H568.926M544.509 178.248V202.665M544.509 178.248H568.926M544.509 202.665V227.083M544.509 202.665H568.926M544.509 227.083V251.5M544.509 227.083H568.926M544.509 251.5V275.918M544.509 251.5H568.926M544.509 275.918V300.335M544.509 275.918H568.926M544.509 300.335V324.753M544.509 300.335H568.926M544.509 324.753V349.17M544.509 324.753H568.926M544.509 349.17V373.588M544.509 349.17H568.926M544.509 373.588V398.005M544.509 373.588H568.926M544.509 398.005V422.423M544.509 398.005H568.926M544.509 422.423V446.84M544.509 422.423H568.926M544.509 446.84V471.257M544.509 446.84H568.926M544.509 471.257V495.675M544.509 471.257H568.926M544.509 495.675H568.926M568.926 7.32544V31.7429M568.926 7.32544H593.344M568.926 31.7429V56.1604M568.926 31.7429H593.344M568.926 56.1604V80.5779M568.926 56.1604H593.344M568.926 80.5779V104.995M568.926 80.5779H593.344M568.926 104.995V129.413M568.926 104.995H593.344M568.926 129.413V153.83M568.926 129.413H593.344M568.926 153.83V178.248M568.926 153.83H593.344M568.926 178.248V202.665M568.926 178.248H593.344M568.926 202.665V227.083M568.926 202.665H593.344M568.926 227.083V251.5M568.926 227.083H593.344M568.926 251.5V275.918M568.926 251.5H593.344M568.926 275.918V300.335M568.926 275.918H593.344M568.926 300.335V324.753M568.926 300.335H593.344M568.926 324.753V349.17M568.926 324.753H593.344M568.926 349.17V373.588M568.926 349.17H593.344M568.926 373.588V398.005M568.926 373.588H593.344M568.926 398.005V422.423M568.926 398.005H593.344M568.926 422.423V446.84M568.926 422.423H593.344M568.926 446.84V471.257M568.926 446.84H593.344M568.926 471.257V495.675M568.926 471.257H593.344M568.926 495.675H593.344M593.344 7.32544V31.7429M593.344 7.32544H617.761M593.344 31.7429V56.1604M593.344 31.7429H617.761M593.344 56.1604V80.5779M593.344 56.1604H617.761M593.344 80.5779V104.995M593.344 80.5779H617.761M593.344 104.995V129.413M593.344 104.995H617.761M593.344 129.413V153.83M593.344 129.413H617.761M593.344 153.83V178.248M593.344 153.83H617.761M593.344 178.248V202.665M593.344 178.248H617.761M593.344 202.665V227.083M593.344 202.665H617.761M593.344 227.083V251.5M593.344 227.083H617.761M593.344 251.5V275.918M593.344 251.5H617.761M593.344 275.918V300.335M593.344 275.918H617.761M593.344 300.335V324.753M593.344 300.335H617.761M593.344 324.753V349.17M593.344 324.753H617.761M593.344 349.17V373.588M593.344 349.17H617.761M593.344 373.588V398.005M593.344 373.588H617.761M593.344 398.005V422.423M593.344 398.005H617.761M593.344 422.423V446.84M593.344 422.423H617.761M593.344 446.84V471.257M593.344 446.84H617.761M593.344 471.257V495.675M593.344 471.257H617.761M593.344 495.675H617.761M617.761 7.32544V31.7429M617.761 7.32544H642.179M617.761 31.7429V56.1604M617.761 31.7429H642.179M617.761 56.1604V80.5779M617.761 56.1604H642.179M617.761 80.5779V104.995M617.761 80.5779H642.179M617.761 104.995V129.413M617.761 104.995H642.179M617.761 129.413V153.83M617.761 129.413H642.179M617.761 153.83V178.248M617.761 153.83H642.179M617.761 178.248V202.665M617.761 178.248H642.179M617.761 202.665V227.083M617.761 202.665H642.179M617.761 227.083V251.5M617.761 227.083H642.179M617.761 251.5V275.918M617.761 251.5H642.179M617.761 275.918V300.335M617.761 275.918H642.179M617.761 300.335V324.753M617.761 300.335H642.179M617.761 324.753V349.17M617.761 324.753H642.179M617.761 349.17V373.588M617.761 349.17H642.179M617.761 373.588V398.005M617.761 373.588H642.179M617.761 398.005V422.423M617.761 398.005H642.179M617.761 422.423V446.84M617.761 422.423H642.179M617.761 446.84V471.257M617.761 446.84H642.179M617.761 471.257V495.675M617.761 471.257H642.179M617.761 495.675H642.179M642.179 7.32544V31.7429M642.179 7.32544H666.596M642.179 31.7429V56.1604M642.179 31.7429H666.596M642.179 56.1604V80.5779M642.179 56.1604H666.596M642.179 80.5779V104.995M642.179 80.5779H666.596M642.179 104.995V129.413M642.179 104.995H666.596M642.179 129.413V153.83M642.179 129.413H666.596M642.179 153.83V178.248M642.179 153.83H666.596M642.179 178.248V202.665M642.179 178.248H666.596M642.179 202.665V227.083M642.179 202.665H666.596M642.179 227.083V251.5M642.179 227.083H666.596M642.179 251.5V275.918M642.179 251.5H666.596M642.179 275.918V300.335M642.179 275.918H666.596M642.179 300.335V324.753M642.179 300.335H666.596M642.179 324.753V349.17M642.179 324.753H666.596M642.179 349.17V373.588M642.179 349.17H666.596M642.179 373.588V398.005M642.179 373.588H666.596M642.179 398.005V422.423M642.179 398.005H666.596M642.179 422.423V446.84M642.179 422.423H666.596M642.179 446.84V471.257M642.179 446.84H666.596M642.179 471.257V495.675M642.179 471.257H666.596M642.179 495.675H666.596M666.596 7.32544V31.7429M666.596 7.32544H691.013M666.596 31.7429V56.1604M666.596 31.7429H691.013M666.596 56.1604V80.5779M666.596 56.1604H691.013M666.596 80.5779V104.995M666.596 80.5779H691.013M666.596 104.995V129.413M666.596 104.995H691.013M666.596 129.413V153.83M666.596 129.413H691.013M666.596 153.83V178.248M666.596 153.83H691.013M666.596 178.248V202.665M666.596 178.248H691.013M666.596 202.665V227.083M666.596 202.665H691.013M666.596 227.083V251.5M666.596 227.083H691.013M666.596 251.5V275.918M666.596 251.5H691.013M666.596 275.918V300.335M666.596 275.918H691.013M666.596 300.335V324.753M666.596 300.335H691.013M666.596 324.753V349.17M666.596 324.753H691.013M666.596 349.17V373.588M666.596 349.17H691.013M666.596 373.588V398.005M666.596 373.588H691.013M666.596 398.005V422.423M666.596 398.005H691.013M666.596 422.423V446.84M666.596 422.423H691.013M666.596 446.84V471.257M666.596 446.84H691.013M666.596 471.257V495.675M666.596 471.257H691.013M666.596 495.675H691.013M691.013 7.32544V31.7429M691.013 7.32544H715.431M691.013 31.7429V56.1604M691.013 31.7429H715.431M691.013 56.1604V80.5779M691.013 56.1604H715.431M691.013 80.5779V104.995M691.013 80.5779H715.431M691.013 104.995V129.413M691.013 104.995H715.431M691.013 129.413V153.83M691.013 129.413H715.431M691.013 153.83V178.248M691.013 153.83H715.431M691.013 178.248V202.665M691.013 178.248H715.431M691.013 202.665V227.083M691.013 202.665H715.431M691.013 227.083V251.5M691.013 227.083H715.431M691.013 251.5V275.918M691.013 251.5H715.431M691.013 275.918V300.335M691.013 275.918H715.431M691.013 300.335V324.753M691.013 300.335H715.431M691.013 324.753V349.17M691.013 324.753H715.431M691.013 349.17V373.588M691.013 349.17H715.431M691.013 373.588V398.005M691.013 373.588H715.431M691.013 398.005V422.423M691.013 398.005H715.431M691.013 422.423V446.84M691.013 422.423H715.431M691.013 446.84V471.257M691.013 446.84H715.431M691.013 471.257V495.675M691.013 471.257H715.431M691.013 495.675H715.431M715.431 7.32544V31.7429M715.431 7.32544H739.848M715.431 31.7429V56.1604M715.431 31.7429H739.848M715.431 56.1604V80.5779M715.431 56.1604H739.848M715.431 80.5779V104.995M715.431 80.5779H739.848M715.431 104.995V129.413M715.431 104.995H739.848M715.431 129.413V153.83M715.431 129.413H739.848M715.431 153.83V178.248M715.431 153.83H739.848M715.431 178.248V202.665M715.431 178.248H739.848M715.431 202.665V227.083M715.431 202.665H739.848M715.431 227.083V251.5M715.431 227.083H739.848M715.431 251.5V275.918M715.431 251.5H739.848M715.431 275.918V300.335M715.431 275.918H739.848M715.431 300.335V324.753M715.431 300.335H739.848M715.431 324.753V349.17M715.431 324.753H739.848M715.431 349.17V373.588M715.431 349.17H739.848M715.431 373.588V398.005M715.431 373.588H739.848M715.431 398.005V422.423M715.431 398.005H739.848M715.431 422.423V446.84M715.431 422.423H739.848M715.431 446.84V471.257M715.431 446.84H739.848M715.431 471.257V495.675M715.431 471.257H739.848M715.431 495.675H739.848M739.848 7.32544V31.7429M739.848 7.32544H764.266M739.848 31.7429V56.1604M739.848 31.7429H764.266M739.848 56.1604V80.5779M739.848 56.1604H764.266M739.848 80.5779V104.995M739.848 80.5779H764.266M739.848 104.995V129.413M739.848 104.995H764.266M739.848 129.413V153.83M739.848 129.413H764.266M739.848 153.83V178.248M739.848 153.83H764.266M739.848 178.248V202.665M739.848 178.248H764.266M739.848 202.665V227.083M739.848 202.665H764.266M739.848 227.083V251.5M739.848 227.083H764.266M739.848 251.5V275.918M739.848 251.5H764.266M739.848 275.918V300.335M739.848 275.918H764.266M739.848 300.335V324.753M739.848 300.335H764.266M739.848 324.753V349.17M739.848 324.753H764.266M739.848 349.17V373.588M739.848 349.17H764.266M739.848 373.588V398.005M739.848 373.588H764.266M739.848 398.005V422.423M739.848 398.005H764.266M739.848 422.423V446.84M739.848 422.423H764.266M739.848 446.84V471.257M739.848 446.84H764.266M739.848 471.257V495.675M739.848 471.257H764.266M739.848 495.675H764.266M764.266 7.32544V31.7429M764.266 7.32544H788.683M764.266 31.7429V56.1604M764.266 31.7429H788.683M764.266 56.1604V80.5779M764.266 56.1604H788.683M764.266 80.5779V104.995M764.266 80.5779H788.683M764.266 104.995V129.413M764.266 104.995H788.683M764.266 129.413V153.83M764.266 129.413H788.683M764.266 153.83V178.248M764.266 153.83H788.683M764.266 178.248V202.665M764.266 178.248H788.683M764.266 202.665V227.083M764.266 202.665H788.683M764.266 227.083V251.5M764.266 227.083H788.683M764.266 251.5V275.918M764.266 251.5H788.683M764.266 275.918V300.335M764.266 275.918H788.683M764.266 300.335V324.753M764.266 300.335H788.683M764.266 324.753V349.17M764.266 324.753H788.683M764.266 349.17V373.588M764.266 349.17H788.683M764.266 373.588V398.005M764.266 373.588H788.683M764.266 398.005V422.423M764.266 398.005H788.683M764.266 422.423V446.84M764.266 422.423H788.683M764.266 446.84V471.257M764.266 446.84H788.683M764.266 471.257V495.675M764.266 471.257H788.683M764.266 495.675H788.683M788.683 7.32544V31.7429M788.683 7.32544H813.101M788.683 31.7429V56.1604M788.683 31.7429H813.101M788.683 56.1604V80.5779M788.683 56.1604H813.101M788.683 80.5779V104.995M788.683 80.5779H813.101M788.683 104.995V129.413M788.683 104.995H813.101M788.683 129.413V153.83M788.683 129.413H813.101M788.683 153.83V178.248M788.683 153.83H813.101M788.683 178.248V202.665M788.683 178.248H813.101M788.683 202.665V227.083M788.683 202.665H813.101M788.683 227.083V251.5M788.683 227.083H813.101M788.683 251.5V275.918M788.683 251.5H813.101M788.683 275.918V300.335M788.683 275.918H813.101M788.683 300.335V324.753M788.683 300.335H813.101M788.683 324.753V349.17M788.683 324.753H813.101M788.683 349.17V373.588M788.683 349.17H813.101M788.683 373.588V398.005M788.683 373.588H813.101M788.683 398.005V422.423M788.683 398.005H813.101M788.683 422.423V446.84M788.683 422.423H813.101M788.683 446.84V471.257M788.683 446.84H813.101M788.683 471.257V495.675M788.683 471.257H813.101M788.683 495.675H813.101M813.101 7.32544V31.7429M813.101 7.32544H837.518M813.101 31.7429V56.1604M813.101 31.7429H837.518M813.101 56.1604V80.5779M813.101 56.1604H837.518M813.101 80.5779V104.995M813.101 80.5779H837.518M813.101 104.995V129.413M813.101 104.995H837.518M813.101 129.413V153.83M813.101 129.413H837.518M813.101 153.83V178.248M813.101 153.83H837.518M813.101 178.248V202.665M813.101 178.248H837.518M813.101 202.665V227.083M813.101 202.665H837.518M813.101 227.083V251.5M813.101 227.083H837.518M813.101 251.5V275.918M813.101 251.5H837.518M813.101 275.918V300.335M813.101 275.918H837.518M813.101 300.335V324.753M813.101 300.335H837.518M813.101 324.753V349.17M813.101 324.753H837.518M813.101 349.17V373.588M813.101 349.17H837.518M813.101 373.588V398.005M813.101 373.588H837.518M813.101 398.005V422.423M813.101 398.005H837.518M813.101 422.423V446.84M813.101 422.423H837.518M813.101 446.84V471.257M813.101 446.84H837.518M813.101 471.257V495.675M813.101 471.257H837.518M813.101 495.675H837.518M837.518 7.32544V31.7429M837.518 7.32544H861.936M837.518 31.7429V56.1604M837.518 31.7429H861.936M837.518 56.1604V80.5779M837.518 56.1604H861.936M837.518 80.5779V104.995M837.518 80.5779H861.936M837.518 104.995V129.413M837.518 104.995H861.936M837.518 129.413V153.83M837.518 129.413H861.936M837.518 153.83V178.248M837.518 153.83H861.936M837.518 178.248V202.665M837.518 178.248H861.936M837.518 202.665V227.083M837.518 202.665H861.936M837.518 227.083V251.5M837.518 227.083H861.936M837.518 251.5V275.918M837.518 251.5H861.936M837.518 275.918V300.335M837.518 275.918H861.936M837.518 300.335V324.753M837.518 300.335H861.936M837.518 324.753V349.17M837.518 324.753H861.936M837.518 349.17V373.588M837.518 349.17H861.936M837.518 373.588V398.005M837.518 373.588H861.936M837.518 398.005V422.423M837.518 398.005H861.936M837.518 422.423V446.84M837.518 422.423H861.936M837.518 446.84V471.257M837.518 446.84H861.936M837.518 471.257V495.675M837.518 471.257H861.936M837.518 495.675H861.936M861.936 7.32544V31.7429M861.936 7.32544H886.353M861.936 31.7429V56.1604M861.936 31.7429H886.353M861.936 56.1604V80.5779M861.936 56.1604H886.353M861.936 80.5779V104.995M861.936 80.5779H886.353M861.936 104.995V129.413M861.936 104.995H886.353M861.936 129.413V153.83M861.936 129.413H886.353M861.936 153.83V178.248M861.936 153.83H886.353M861.936 178.248V202.665M861.936 178.248H886.353M861.936 202.665V227.083M861.936 202.665H886.353M861.936 227.083V251.5M861.936 227.083H886.353M861.936 251.5V275.918M861.936 251.5H886.353M861.936 275.918V300.335M861.936 275.918H886.353M861.936 300.335V324.753M861.936 300.335H886.353M861.936 324.753V349.17M861.936 324.753H886.353M861.936 349.17V373.588M861.936 349.17H886.353M861.936 373.588V398.005M861.936 373.588H886.353M861.936 398.005V422.423M861.936 398.005H886.353M861.936 422.423V446.84M861.936 422.423H886.353M861.936 446.84V471.257M861.936 446.84H886.353M861.936 471.257V495.675M861.936 471.257H886.353M861.936 495.675H886.353M886.353 7.32544V31.7429M886.353 7.32544H910.771M886.353 31.7429V56.1604M886.353 31.7429H910.771M886.353 56.1604V80.5779M886.353 56.1604H910.771M886.353 80.5779V104.995M886.353 80.5779H910.771M886.353 104.995V129.413M886.353 104.995H910.771M886.353 129.413V153.83M886.353 129.413H910.771M886.353 153.83V178.248M886.353 153.83H910.771M886.353 178.248V202.665M886.353 178.248H910.771M886.353 202.665V227.083M886.353 202.665H910.771M886.353 227.083V251.5M886.353 227.083H910.771M886.353 251.5V275.918M886.353 251.5H910.771M886.353 275.918V300.335M886.353 275.918H910.771M886.353 300.335V324.753M886.353 300.335H910.771M886.353 324.753V349.17M886.353 324.753H910.771M886.353 349.17V373.588M886.353 349.17H910.771M886.353 373.588V398.005M886.353 373.588H910.771M886.353 398.005V422.423M886.353 398.005H910.771M886.353 422.423V446.84M886.353 422.423H910.771M886.353 446.84V471.257M886.353 446.84H910.771M886.353 471.257V495.675M886.353 471.257H910.771M886.353 495.675H910.771M910.771 7.32544V31.7429M910.771 7.32544H935.188M910.771 31.7429V56.1604M910.771 31.7429H935.188M910.771 56.1604V80.5779M910.771 56.1604H935.188M910.771 80.5779V104.995M910.771 80.5779H935.188M910.771 104.995V129.413M910.771 104.995H935.188M910.771 129.413V153.83M910.771 129.413H935.188M910.771 153.83V178.248M910.771 153.83H935.188M910.771 178.248V202.665M910.771 178.248H935.188M910.771 202.665V227.083M910.771 202.665H935.188M910.771 227.083V251.5M910.771 227.083H935.188M910.771 251.5V275.918M910.771 251.5H935.188M910.771 275.918V300.335M910.771 275.918H935.188M910.771 300.335V324.753M910.771 300.335H935.188M910.771 324.753V349.17M910.771 324.753H935.188M910.771 349.17V373.588M910.771 349.17H935.188M910.771 373.588V398.005M910.771 373.588H935.188M910.771 398.005V422.423M910.771 398.005H935.188M910.771 422.423V446.84M910.771 422.423H935.188M910.771 446.84V471.257M910.771 446.84H935.188M910.771 471.257V495.675M910.771 471.257H935.188M910.771 495.675H935.188M935.188 7.32544V31.7429M935.188 7.32544H959.606M935.188 31.7429V56.1604M935.188 31.7429H959.606M935.188 56.1604V80.5779M935.188 56.1604H959.606M935.188 80.5779V104.995M935.188 80.5779H959.606M935.188 104.995V129.413M935.188 104.995H959.606M935.188 129.413V153.83M935.188 129.413H959.606M935.188 153.83V178.248M935.188 153.83H959.606M935.188 178.248V202.665M935.188 178.248H959.606M935.188 202.665V227.083M935.188 202.665H959.606M935.188 227.083V251.5M935.188 227.083H959.606M935.188 251.5V275.918M935.188 251.5H959.606M935.188 275.918V300.335M935.188 275.918H959.606M935.188 300.335V324.753M935.188 300.335H959.606M935.188 324.753V349.17M935.188 324.753H959.606M935.188 349.17V373.588M935.188 349.17H959.606M935.188 373.588V398.005M935.188 373.588H959.606M935.188 398.005V422.423M935.188 398.005H959.606M935.188 422.423V446.84M935.188 422.423H959.606M935.188 446.84V471.257M935.188 446.84H959.606M935.188 471.257V495.675M935.188 471.257H959.606M935.188 495.675H959.606M959.606 7.32544V31.7429M959.606 7.32544H984.023M959.606 31.7429V56.1604M959.606 31.7429H984.023M959.606 56.1604V80.5779M959.606 56.1604H984.023M959.606 80.5779V104.995M959.606 80.5779H984.023M959.606 104.995V129.413M959.606 104.995H984.023M959.606 129.413V153.83M959.606 129.413H984.023M959.606 153.83V178.248M959.606 153.83H984.023M959.606 178.248V202.665M959.606 178.248H984.023M959.606 202.665V227.083M959.606 202.665H984.023M959.606 227.083V251.5M959.606 227.083H984.023M959.606 251.5V275.918M959.606 251.5H984.023M959.606 275.918V300.335M959.606 275.918H984.023M959.606 300.335V324.753M959.606 300.335H984.023M959.606 324.753V349.17M959.606 324.753H984.023M959.606 349.17V373.588M959.606 349.17H984.023M959.606 373.588V398.005M959.606 373.588H984.023M959.606 398.005V422.423M959.606 398.005H984.023M959.606 422.423V446.84M959.606 422.423H984.023M959.606 446.84V471.257M959.606 446.84H984.023M959.606 471.257V495.675M959.606 471.257H984.023M959.606 495.675H984.023M984.023 7.32544V31.7429M984.023 7.32544H1008.44M984.023 31.7429V56.1604M984.023 31.7429H1008.44M984.023 56.1604V80.5779M984.023 56.1604H1008.44M984.023 80.5779V104.995M984.023 80.5779H1008.44M984.023 104.995V129.413M984.023 104.995H1008.44M984.023 129.413V153.83M984.023 129.413H1008.44M984.023 153.83V178.248M984.023 153.83H1008.44M984.023 178.248V202.665M984.023 178.248H1008.44M984.023 202.665V227.083M984.023 202.665H1008.44M984.023 227.083V251.5M984.023 227.083H1008.44M984.023 251.5V275.918M984.023 251.5H1008.44M984.023 275.918V300.335M984.023 275.918H1008.44M984.023 300.335V324.753M984.023 300.335H1008.44M984.023 324.753V349.17M984.023 324.753H1008.44M984.023 349.17V373.588M984.023 349.17H1008.44M984.023 373.588V398.005M984.023 373.588H1008.44M984.023 398.005V422.423M984.023 398.005H1008.44M984.023 422.423V446.84M984.023 422.423H1008.44M984.023 446.84V471.257M984.023 446.84H1008.44M984.023 471.257V495.675M984.023 471.257H1008.44M984.023 495.675H1008.44M1008.44 7.32544V31.7429M1008.44 7.32544H1032.86M1008.44 31.7429V56.1604M1008.44 31.7429H1032.86M1008.44 56.1604V80.5779M1008.44 56.1604H1032.86M1008.44 80.5779V104.995M1008.44 80.5779H1032.86M1008.44 104.995V129.413M1008.44 104.995H1032.86M1008.44 129.413V153.83M1008.44 129.413H1032.86M1008.44 153.83V178.248M1008.44 153.83H1032.86M1008.44 178.248V202.665M1008.44 178.248H1032.86M1008.44 202.665V227.083M1008.44 202.665H1032.86M1008.44 227.083V251.5M1008.44 227.083H1032.86M1008.44 251.5V275.918M1008.44 251.5H1032.86M1008.44 275.918V300.335M1008.44 275.918H1032.86M1008.44 300.335V324.753M1008.44 300.335H1032.86M1008.44 324.753V349.17M1008.44 324.753H1032.86M1008.44 349.17V373.588M1008.44 349.17H1032.86M1008.44 373.588V398.005M1008.44 373.588H1032.86M1008.44 398.005V422.423M1008.44 398.005H1032.86M1008.44 422.423V446.84M1008.44 422.423H1032.86M1008.44 446.84V471.257M1008.44 446.84H1032.86M1008.44 471.257V495.675M1008.44 471.257H1032.86M1008.44 495.675H1032.86M1032.86 7.32544V31.7429M1032.86 7.32544H1057.28M1032.86 31.7429V56.1604M1032.86 31.7429H1057.28M1032.86 56.1604V80.5779M1032.86 56.1604H1057.28M1032.86 80.5779V104.995M1032.86 80.5779H1057.28M1032.86 104.995V129.413M1032.86 104.995H1057.28M1032.86 129.413V153.83M1032.86 129.413H1057.28M1032.86 153.83V178.248M1032.86 153.83H1057.28M1032.86 178.248V202.665M1032.86 178.248H1057.28M1032.86 202.665V227.083M1032.86 202.665H1057.28M1032.86 227.083V251.5M1032.86 227.083H1057.28M1032.86 251.5V275.918M1032.86 251.5H1057.28M1032.86 275.918V300.335M1032.86 275.918H1057.28M1032.86 300.335V324.753M1032.86 300.335H1057.28M1032.86 324.753V349.17M1032.86 324.753H1057.28M1032.86 349.17V373.588M1032.86 349.17H1057.28M1032.86 373.588V398.005M1032.86 373.588H1057.28M1032.86 398.005V422.423M1032.86 398.005H1057.28M1032.86 422.423V446.84M1032.86 422.423H1057.28M1032.86 446.84V471.257M1032.86 446.84H1057.28M1032.86 471.257V495.675M1032.86 471.257H1057.28M1032.86 495.675H1057.28M1057.28 7.32544V31.7429M1057.28 7.32544H1081.69V31.7429M1057.28 31.7429V56.1604M1057.28 31.7429H1081.69M1057.28 56.1604V80.5779M1057.28 56.1604H1081.69M1057.28 80.5779V104.995M1057.28 80.5779H1081.69M1057.28 104.995V129.413M1057.28 104.995H1081.69M1057.28 129.413V153.83M1057.28 129.413H1081.69M1057.28 153.83V178.248M1057.28 153.83H1081.69M1057.28 178.248V202.665M1057.28 178.248H1081.69M1057.28 202.665V227.083M1057.28 202.665H1081.69M1057.28 227.083V251.5M1057.28 227.083H1081.69M1057.28 251.5V275.918M1057.28 251.5H1081.69M1057.28 275.918V300.335M1057.28 275.918H1081.69M1057.28 300.335V324.753M1057.28 300.335H1081.69M1057.28 324.753V349.17M1057.28 324.753H1081.69M1057.28 349.17V373.588M1057.28 349.17H1081.69M1057.28 373.588V398.005M1057.28 373.588H1081.69M1057.28 398.005V422.423M1057.28 398.005H1081.69M1057.28 422.423V446.84M1057.28 422.423H1081.69M1057.28 446.84V471.257M1057.28 446.84H1081.69M1057.28 471.257V495.675M1057.28 471.257H1081.69M1057.28 495.675H1081.69V471.257M1081.69 31.7429V56.1604M1081.69 56.1604V80.5779M1081.69 80.5779V104.995M1081.69 104.995V129.413M1081.69 129.413V153.83M1081.69 153.83V178.248M1081.69 178.248V202.665M1081.69 202.665V227.083M1081.69 227.083V251.5M1081.69 251.5V275.918M1081.69 275.918V300.335M1081.69 300.335V324.753M1081.69 324.753V349.17M1081.69 349.17V373.588M1081.69 373.588V398.005M1081.69 398.005V422.423M1081.69 422.423V446.84M1081.69 446.84V471.257" stroke="url(#paint0_radial_25455_627)" stroke-opacity="0.6" stroke-width="0.305218"/>
</g>
<g opacity="0.8" style="mix-blend-mode:soft-light">
<path d="M104.995 97.6698V104.995M104.995 104.995V112.32M104.995 104.995H97.6699M104.995 104.995H112.32M104.995 293.01V300.335M104.995 300.335V307.66M104.995 300.335H97.6699M104.995 300.335H112.32M104.995 488.349V495.675M104.995 495.675V503M104.995 495.675H97.6699M104.995 495.675H112.32M300.335 97.6698V104.995M300.335 104.995V112.32M300.335 104.995H293.01M300.335 104.995H307.66M300.335 293.01V300.335M300.335 300.335V307.66M300.335 300.335H293.01M300.335 300.335H307.66M300.335 488.349V495.675M300.335 495.675V503M300.335 495.675H293.01M300.335 495.675H307.66M495.675 97.6698V104.995M495.675 104.995V112.32M495.675 104.995H488.35M495.675 104.995H503M495.675 293.01V300.335M495.675 300.335V307.66M495.675 300.335H488.35M495.675 300.335H503M495.675 488.349V495.675M495.675 495.675V503M495.675 495.675H488.35M495.675 495.675H503M691.015 97.6698V104.995M691.015 104.995V112.32M691.015 104.995H683.689M691.015 104.995H698.34M691.015 293.01V300.335M691.015 300.335V307.66M691.015 300.335H683.689M691.015 300.335H698.34M691.015 488.349V495.675M691.015 495.675V503M691.015 495.675H683.689M691.015 495.675H698.34M886.354 97.6698V104.995M886.354 104.995V112.32M886.354 104.995H879.029M886.354 104.995H893.68M886.354 293.01V300.335M886.354 300.335V307.66M886.354 300.335H879.029M886.354 300.335H893.68M886.354 488.349V495.675M886.354 495.675V503M886.354 495.675H879.029M886.354 495.675H893.68M1081.69 97.6698V104.995M1081.69 104.995V112.32M1081.69 104.995H1074.37M1081.69 104.995H1089.02M1081.69 293.01V300.335M1081.69 300.335V307.66M1081.69 300.335H1074.37M1081.69 300.335H1089.02M1081.69 488.349V495.675M1081.69 495.675V503M1081.69 495.675H1074.37M1081.69 495.675H1089.02M104.995 0V7.32524M104.995 7.32524V14.6505M104.995 7.32524H97.6699M104.995 7.32524H112.32M104.995 195.34V202.665M104.995 202.665V209.99M104.995 202.665H97.6699M104.995 202.665H112.32M104.995 390.679V398.005M104.995 398.005V405.33M104.995 398.005H97.6699M104.995 398.005H112.32M300.335 0V7.32524M300.335 7.32524V14.6505M300.335 7.32524H293.01M300.335 7.32524H307.66M300.335 195.34V202.665M300.335 202.665V209.99M300.335 202.665H293.01M300.335 202.665H307.66M300.335 390.679V398.005M300.335 398.005V405.33M300.335 398.005H293.01M300.335 398.005H307.66M495.675 0V7.32524M495.675 7.32524V14.6505M495.675 7.32524H488.35M495.675 7.32524H503M495.675 195.34V202.665M495.675 202.665V209.99M495.675 202.665H488.35M495.675 202.665H503M495.675 390.679V398.005M495.675 398.005V405.33M495.675 398.005H488.35M495.675 398.005H503M691.015 0V7.32524M691.015 7.32524V14.6505M691.015 7.32524H683.689M691.015 7.32524H698.34M691.015 195.34V202.665M691.015 202.665V209.99M691.015 202.665H683.689M691.015 202.665H698.34M691.015 390.679V398.005M691.015 398.005V405.33M691.015 398.005H683.689M691.015 398.005H698.34M886.354 0V7.32524M886.354 7.32524V14.6505M886.354 7.32524H879.029M886.354 7.32524H893.68M886.354 195.34V202.665M886.354 202.665V209.99M886.354 202.665H879.029M886.354 202.665H893.68M886.354 390.679V398.005M886.354 398.005V405.33M886.354 398.005H879.029M886.354 398.005H893.68M1081.69 0V7.32524M1081.69 7.32524V14.6505M1081.69 7.32524H1074.37M1081.69 7.32524H1089.02M1081.69 195.34V202.665M1081.69 202.665V209.99M1081.69 202.665H1074.37M1081.69 202.665H1089.02M1081.69 390.679V398.005M1081.69 398.005V405.33M1081.69 398.005H1074.37M1081.69 398.005H1089.02M7.32524 97.6698V104.995M7.32524 104.995V112.32M7.32524 104.995H0M7.32524 104.995H14.6505M7.32524 293.01V300.335M7.32524 300.335V307.66M7.32524 300.335H0M7.32524 300.335H14.6505M7.32524 488.349V495.675M7.32524 495.675V503M7.32524 495.675H0M7.32524 495.675H14.6505M202.665 97.6698V104.995M202.665 104.995V112.32M202.665 104.995H195.34M202.665 104.995H209.99M202.665 293.01V300.335M202.665 300.335V307.66M202.665 300.335H195.34M202.665 300.335H209.99M202.665 488.349V495.675M202.665 495.675V503M202.665 495.675H195.34M202.665 495.675H209.99M398.005 97.6698V104.995M398.005 104.995V112.32M398.005 104.995H390.68M398.005 104.995H405.33M398.005 293.01V300.335M398.005 300.335V307.66M398.005 300.335H390.68M398.005 300.335H405.33M398.005 488.349V495.675M398.005 495.675V503M398.005 495.675H390.68M398.005 495.675H405.33M593.345 97.6698V104.995M593.345 104.995V112.32M593.345 104.995H586.019M593.345 104.995H600.67M593.345 293.01V300.335M593.345 300.335V307.66M593.345 300.335H586.019M593.345 300.335H600.67M593.345 488.349V495.675M593.345 495.675V503M593.345 495.675H586.019M593.345 495.675H600.67M788.684 97.6698V104.995M788.684 104.995V112.32M788.684 104.995H781.359M788.684 104.995H796.01M788.684 293.01V300.335M788.684 300.335V307.66M788.684 300.335H781.359M788.684 300.335H796.01M788.684 488.349V495.675M788.684 495.675V503M788.684 495.675H781.359M788.684 495.675H796.01M984.024 97.6698V104.995M984.024 104.995V112.32M984.024 104.995H976.699M984.024 104.995H991.349M984.024 293.01V300.335M984.024 300.335V307.66M984.024 300.335H976.699M984.024 300.335H991.349M984.024 488.349V495.675M984.024 495.675V503M984.024 495.675H976.699M984.024 495.675H991.349M7.32524 3.6011e-05V7.32528M7.32524 7.32528V14.6505M7.32524 7.32528H0M7.32524 7.32528H14.6505M7.32524 195.34V202.665M7.32524 202.665V209.99M7.32524 202.665H0M7.32524 202.665H14.6505M7.32524 390.679V398.005M7.32524 398.005V405.33M7.32524 398.005H0M7.32524 398.005H14.6505M202.665 0V7.32524M202.665 7.32524V14.6505M202.665 7.32524H195.34M202.665 7.32524H209.99M202.665 195.34V202.665M202.665 202.665V209.99M202.665 202.665H195.34M202.665 202.665H209.99M202.665 390.679V398.005M202.665 398.005V405.33M202.665 398.005H195.34M202.665 398.005H209.99M398.005 0V7.32524M398.005 7.32524V14.6505M398.005 7.32524H390.68M398.005 7.32524H405.33M398.005 195.34V202.665M398.005 202.665V209.99M398.005 202.665H390.68M398.005 202.665H405.33M398.005 390.679V398.005M398.005 398.005V405.33M398.005 398.005H390.68M398.005 398.005H405.33M593.345 0V7.32524M593.345 7.32524V14.6505M593.345 7.32524H586.019M593.345 7.32524H600.67M593.345 195.34V202.665M593.345 202.665V209.99M593.345 202.665H586.019M593.345 202.665H600.67M593.345 390.679V398.005M593.345 398.005V405.33M593.345 398.005H586.019M593.345 398.005H600.67M788.684 0V7.32524M788.684 7.32524V14.6505M788.684 7.32524H781.359M788.684 7.32524H796.01M788.684 195.34V202.665M788.684 202.665V209.99M788.684 202.665H781.359M788.684 202.665H796.01M788.684 390.679V398.005M788.684 398.005V405.33M788.684 398.005H781.359M788.684 398.005H796.01M984.024 0V7.32524M984.024 7.32524V14.6505M984.024 7.32524H976.699M984.024 7.32524H991.349M984.024 195.34V202.665M984.024 202.665V209.99M984.024 202.665H976.699M984.024 202.665H991.349M984.024 390.679V398.005M984.024 398.005V405.33M984.024 398.005H976.699M984.024 398.005H991.349" stroke="url(#paint1_radial_25455_627)" stroke-opacity="0.6" stroke-width="0.610437"/>
</g>
<defs>
<radialGradient id="paint0_radial_25455_627" cx="0" cy="0" r="1" gradientUnits="userSpaceOnUse" gradientTransform="translate(544.509 251.5) rotate(90) scale(244.175 537.184)">
<stop stop-color="white"/>
<stop offset="1" stop-color="white" stop-opacity="0"/>
</radialGradient>
<radialGradient id="paint1_radial_25455_627" cx="0" cy="0" r="1" gradientUnits="userSpaceOnUse" gradientTransform="translate(544.51 251.5) rotate(90) scale(251.5 544.51)">
<stop stop-color="white"/>
<stop offset="1" stop-color="white" stop-opacity="0"/>
</radialGradient>
</defs>
</svg>
