<svg width="241" height="82" viewBox="0 0 241 82" fill="none" xmlns="http://www.w3.org/2000/svg">
<path d="M70.3094 48.8199C68.9836 49.5387 68.9824 49.7322 70.2281 50.2743C70.2532 49.826 70.2759 49.4173 70.3094 48.8199ZM176.93 46.6997C176.782 46.749 176.349 46.7959 175.966 46.8043L175.704 46.7863L175.261 46.755C175.07 47.0315 174.97 47.3476 175.041 47.4593C175.112 47.5699 175.504 47.7274 175.723 47.5483C175.943 47.3704 176.336 46.1156 176.409 46.4341C176.482 46.7502 177.08 46.6504 176.93 46.6997ZM178.941 42.2778C178.843 42.7213 178.565 43.0915 178.323 43.0999L178.17 43.1864C177.295 43.6792 176.34 44.0374 175.383 44.3992L175.064 44.5206C174.747 44.7105 174.134 45.0242 173.702 45.2189C173.269 45.4124 172.212 45.8704 171.821 46.0254C171.43 46.1817 170.566 46.8067 170.364 46.8464C170.162 46.8872 169.392 47.4401 168.737 47.6589C168.083 47.8776 166.558 48.8668 166.371 48.8656C166.181 48.8644 165.641 49.1913 165.483 49.338C165.322 49.4846 164.686 49.8729 164.491 49.9534C164.294 50.0339 163.527 50.3765 163.234 50.558C162.942 50.7407 161.82 51.4522 161.334 51.665C160.849 51.8789 159.326 52.4871 159.096 52.6998L158.949 52.7455L158.371 52.9282C157.859 53.278 156.793 53.9054 156.001 54.3249L155.285 54.7251C154.95 54.9114 154.622 55.1181 154.255 55.248L153.53 55.5016C152.812 55.9847 152.076 56.3381 151.894 56.2864C151.713 56.2347 151.21 56.7299 151.06 56.885C150.911 57.0388 150.234 57.3706 149.995 57.4006C149.756 57.4307 148.861 57.6627 148.306 57.6663L148.283 58.272C148.278 58.4031 147.753 58.5545 147.443 58.6206L147.353 58.6398C147.153 58.6134 146.695 58.8959 146.335 59.266C145.973 59.6387 144.261 60.23 143.928 60.4223C143.597 60.6146 142.928 61.3418 142.879 61.2264C142.829 61.1122 142.63 61.0581 142.519 61.2949C142.406 61.5305 141.607 61.7481 141.619 61.831C141.632 61.9151 141.504 62.0702 141.306 61.9921L141.116 61.9416C141.055 61.9247 140.936 61.9536 140.895 61.9957C140.683 62.2132 140.527 62.587 140.279 62.6303L139.898 62.6964C139.576 62.8527 138.977 63.164 138.564 63.3851C138.151 63.6087 136.392 64.5931 135.611 65.1303L134.864 65.5883C134.704 65.6868 134.529 65.795 134.341 65.8299C134.088 65.8779 133.79 65.8118 133.561 65.8912C133.43 65.9356 133.439 66.2037 133.312 66.3155L133.165 66.4441C132.947 66.5558 132.695 66.7518 132.605 66.8792L132.507 66.8852L132.138 66.908C131.916 67.1304 131.626 67.4597 131.493 67.6364C131.362 67.8155 130.524 67.5967 130.251 67.6929L130.22 67.8239L130.113 68.283C129.65 68.408 129.172 68.6112 129.054 68.7338C128.935 68.8576 128.307 69.0234 127.966 69.0679L127.845 69.4489L127.724 69.8287C127.249 70.0775 126.823 70.2723 126.778 70.2626C126.733 70.2518 126.529 70.1533 126.4 70.0908C126.273 70.0283 125.82 70.4778 125.66 70.6388C125.5 70.7999 124.513 71.3396 123.932 71.6112L123.469 71.967L122.997 72.33C122.318 72.5788 121.556 72.967 121.301 73.1918C121.047 73.4165 120.005 73.6149 119.949 73.7086C119.894 73.8036 118.984 74.4118 118.128 74.8937L117.351 75.0957C117.11 75.1594 116.75 75.1101 116.623 75.2351L116.235 75.6173C115.732 75.9478 115.049 76.0476 114.715 75.8397L114.538 76.3529L114.461 76.5765C114.135 76.7591 113.723 76.9575 113.546 77.0176C113.369 77.0765 112.359 77.3673 111.704 77.5524C111.05 77.7387 109.235 78.7568 108.861 78.9539L108.488 79.0609L107.024 79.4803C105.488 80.0789 103.78 80.6811 103.229 80.8181C102.677 80.9563 101.203 81.3566 101.141 81.3073C101.08 81.258 100.765 81.2352 100.58 81.2508C100.394 81.2689 99.797 81.2352 99.7695 81.121C99.742 81.0068 99.4189 80.6535 99.1556 80.7628C98.8936 80.8722 98.2558 80.9503 98.2797 80.7123C98.3025 80.4744 97.4182 80.7977 97.1035 80.6751C96.7888 80.5513 95.883 80.3986 95.7884 80.609L95.6281 80.6366L94.7103 80.7917C93.6753 80.8398 92.7934 80.865 92.7479 80.8482C92.7036 80.8325 92.4595 80.6306 92.2764 80.4635C92.0934 80.2953 90.8549 80.2448 90.0903 79.7556L90.0376 79.1715C90.0304 79.0825 90.399 77.8866 90.4445 77.8084L90.5306 77.6618C90.612 77.4959 90.7221 77.1582 90.7747 76.9118C90.8274 76.6654 90.8214 75.8877 90.6503 75.7195C90.478 75.55 89.7947 75.6522 89.7947 75.2832C89.7947 74.9118 89.4692 73.8997 89.072 73.7519C88.6747 73.6052 87.9771 72.6124 87.447 72.4983L87.7462 71.8817L87.8933 71.5764C87.8251 71.1665 87.6456 70.3924 87.4961 69.8564C87.3465 69.3203 86.2947 67.1268 85.8412 66.0186L85.3506 65.0366L85.3039 64.944C85.3972 64.7914 85.5301 64.3178 85.5983 63.8899C85.6665 63.4632 85.2991 62.3214 85.2955 62.2733C85.2919 62.224 85.3781 62.0377 85.481 61.8598C85.5851 61.6796 85.6306 61.0654 85.3637 60.9752C85.0969 60.8851 84.4412 61.7132 83.9757 61.9692C83.5102 62.2264 81.4844 63.3803 80.4745 63.9284C79.4646 64.4765 76.7327 66.1556 76.4838 66.253C76.2362 66.3491 75.0216 66.9441 74.2953 67.301C73.5678 67.658 71.5455 68.9357 71.1542 69.116C70.7618 69.2951 69.5053 70.0944 69.0913 70.259C68.6785 70.4249 67.4137 70.967 67.2043 71.0812C66.9949 71.1941 66.0915 71.6569 65.6631 71.8576C65.2359 72.0583 63.6349 72.6172 63.161 72.7939C62.6872 72.9718 61.2178 73.5536 60.9366 73.6677C60.6554 73.7831 59.2589 73.4105 59.1476 73.3709C59.0352 73.33 58.7145 73.4634 58.8772 73.5187C59.0412 73.574 59.3343 73.8613 59.1225 74.0235L59.0412 74.0355L58.4381 74.1353C57.7572 74.2014 57.1206 74.2447 57.0225 74.2303C56.9232 74.2158 56.2675 74.0428 55.7816 73.9081C55.2958 73.7735 53.9556 73.3721 54.0167 72.8468L53.3861 72.4971L52.9996 72.2831C52.7124 71.8204 52.5987 71.4814 52.7471 71.5319C52.8943 71.58 53.392 71.6172 53.4076 71.467C53.422 71.3155 53.3478 70.9261 53.2078 70.9393L53.1587 70.9766L52.8332 71.2182C52.4707 71.098 51.7767 70.6304 51.2908 70.1797L50.9486 69.7194L50.823 69.5499C50.9151 69.247 50.8349 68.9513 50.6435 68.8924C50.4532 68.8335 50.7476 68.3936 50.7464 68.3455C50.7452 68.2987 50.3192 68.0354 49.8178 67.765L49.8884 67.2373C49.9327 66.908 49.819 66.652 49.496 66.4393L49.2566 66.2818C48.9419 66.0078 48.9611 65.7277 49.3009 65.6604C49.6407 65.5931 50.409 65.1327 50.5442 64.9464C50.6806 64.7601 51.243 64.4164 51.602 64.4741L51.7922 64.3839C52.1081 64.2337 52.3235 63.95 52.6131 63.7541L52.8021 63.6255C53.0594 63.5378 53.7678 63.3815 54.3756 63.2793L54.4175 62.4452L54.4259 62.2769C54.4223 62.1123 54.5874 62.0618 54.7945 62.1639C55.0003 62.2661 55.5663 61.9704 55.4969 61.5137L56.2866 61.5161C56.4182 61.5173 56.5917 61.2865 56.6695 61.1363L56.7066 61.063C56.6001 60.9295 56.4637 60.8574 56.4027 60.9019C56.3428 60.9464 56.0437 60.8959 56.143 60.4932L56.2627 60.2468C56.3213 60.129 56.441 59.9896 56.7246 60.1495L56.9304 60.2649C57.2702 60.2288 58.0013 59.9247 58.5553 59.5894L58.5326 59.0269L58.5278 58.9151C58.5326 58.7889 58.6259 58.6242 58.7372 58.5497C58.8485 58.474 59.2027 58.3778 59.217 58.5521L59.2865 58.7204C59.3247 58.8153 59.4647 58.9379 59.5689 58.9451C59.6813 58.9523 59.8955 58.849 59.9087 58.7745L59.9757 58.3886C60.2748 58.0653 60.5405 57.7312 60.568 57.6458L60.5692 57.5629L60.5716 57.1771C60.994 56.9715 61.4367 56.7612 61.5564 56.7083C61.676 56.6566 62.1367 56.5857 62.3019 56.5809C62.467 56.5761 62.4072 56.2167 62.3055 56.1566C62.2049 56.0977 61.8268 55.6061 62.108 55.4102C62.3892 55.2155 63.4829 55.2756 63.5822 55.0544C63.6827 54.8333 64.5957 54.4535 64.8195 54.2359L65.0803 54.0881C65.407 53.903 65.4573 53.7251 65.1186 53.5051C65.0995 53.4931 65.2539 53.1974 65.3867 53.1518L65.7552 53.0292C66.2327 52.9402 66.6515 52.9883 66.6874 53.1361C66.7233 53.284 66.9793 53.3236 67.1744 52.8933L66.7747 52.4775L66.5713 52.2659C66.8944 52.2876 67.5992 52.0784 68.1376 51.8032L68.3111 51.3476L68.3518 51.2395C68.0622 51.0375 67.9486 50.8044 68.0993 50.7214C68.2489 50.6385 68.5768 50.2803 68.3387 50.1962L68.2573 50.2394L67.744 50.5171C67.1959 50.8368 66.6024 51.2743 66.4253 51.4895C66.2482 51.7046 65.5004 51.9763 65.4597 51.8849C65.419 51.7936 65.1737 51.6085 65.0444 51.7731C64.9152 51.9378 64.5586 52.2936 64.4976 52.2503C64.4366 52.207 64.4593 52.3753 64.6783 52.7142C64.8973 53.0544 63.5822 53.32 63.6349 53.1938C63.6887 53.0652 63.7988 52.6578 63.721 52.6674C63.642 52.6782 62.7757 53.1229 61.8675 53.6169C60.9593 54.1109 57.8493 55.8982 56.9555 56.4655L56.0904 56.9138L55.315 57.3141C54.5192 57.8117 53.3238 58.4956 52.6573 58.8333L52.1667 59.3093L51.6714 59.7889C50.9582 60.2 50.0679 60.6795 49.6934 60.855C49.3189 61.0281 48.1306 61.7937 47.6592 62.0005C47.1865 62.2072 45.26 63.3935 44.2597 63.9693L43.3622 64.4957L42.9351 64.7481C42.478 64.8419 41.7911 65.2818 41.4094 65.7241L41.0767 65.7169L40.0537 65.6928C39.3453 66.2109 38.3461 66.7818 37.8352 66.9657C37.3242 67.1484 35.8835 68.1412 35.4348 68.2386C34.9861 68.3359 33.9881 69.3972 33.6196 69.6484C33.251 69.9009 31.8151 70.1713 31.6093 70.271L31.516 70.4105L31.1642 70.9393C30.4857 71.1905 29.5751 71.5187 29.1396 71.6701C28.704 71.8204 27.4416 72.5872 27.1209 72.7675L26.8134 72.9117C26.6423 72.9922 26.4245 73.0139 26.2677 73.1076C25.7664 73.4057 25.3332 73.8769 24.7816 73.9947L24.2252 74.1161C23.6951 74.336 22.7845 74.687 22.2017 74.8973C21.6202 75.1089 19.8648 74.9021 19.7368 75.0007C19.6075 75.1005 19.0272 75.2952 18.7723 75.1858C18.5162 75.074 17.5554 74.7375 17.2072 74.5692C16.859 74.3997 15.4422 75.1846 14.613 75.3601L13.8053 75.3961L13.1304 75.4274C12.5058 75.2399 11.7591 74.7363 11.4731 74.306L11.5569 74.0067L11.7017 73.4838C11.8584 72.9069 11.9996 72.217 12.0164 71.9502C12.0331 71.6821 11.1357 71.342 11.0447 71.2891C10.9538 71.2362 10.5398 71.0559 10.3543 70.9574C10.1664 70.8588 10.0504 70.1677 10.0528 69.9297C10.0551 69.6929 9.97138 69.0655 9.86847 69.0114L9.83138 69.0186L9.50591 69.0823C9.14933 69.1617 8.94232 69.0391 9.04403 68.8107L8.73411 68.5487L8.40864 68.2758C8.26026 67.8203 7.80675 66.6448 7.39871 65.664L6.97512 64.7914L6.82794 64.4897C6.52999 64.2096 6.12794 63.7733 5.93409 63.5197C5.74024 63.2673 5.22332 62.2901 5.14314 61.932L5.03545 61.6122C4.94331 61.3358 4.65254 61.1423 4.71117 60.7805L4.75306 60.5245C4.51374 60.2132 4.26843 59.8814 4.2086 59.7877L4.23613 59.7264L4.39049 59.3923C4.41202 59.0004 4.41203 58.504 4.38809 58.2877C4.36536 58.0713 4.76502 57.0725 4.98998 56.3105L5.6505 55.7876C5.77135 55.6927 5.60622 55.3657 5.72469 55.254L5.91016 55.0761C6.22725 54.9595 6.44144 54.8237 6.3852 54.772C6.32896 54.7203 6.35409 54.5701 6.56469 54.552C6.77529 54.534 6.95717 53.7996 7.10076 53.5208C7.24435 53.2443 7.4406 52.7575 7.29342 52.5352L7.59854 52.3765L7.78282 52.2815C7.81991 52.1253 7.9312 51.9426 8.02932 51.8741L8.12265 51.8164L8.4565 51.6097C8.25786 51.3404 8.39428 51.0243 8.75924 50.9089C9.12539 50.7935 9.46881 49.8584 9.5777 49.5904C9.68659 49.3212 10.468 48.8716 10.7336 48.7827L10.4117 48.5147C10.3507 48.4642 10.4428 48.1829 10.4763 48.1817L11.1799 48.1481C11.2781 47.6829 11.5569 47.0375 11.8022 46.7153C12.0475 46.3932 12.5261 45.4197 12.6553 45.4677C12.7846 45.5158 13.2931 45.4293 13.5504 45.1889C13.8077 44.9473 14.4418 44.1684 14.2935 44.0819C14.1451 43.9941 13.5947 43.7694 13.5348 43.8535C13.4762 43.9376 13.11 44.0302 12.9676 43.7045L12.7977 43.6372L12.5811 43.5494C12.2629 43.5831 11.7591 43.6504 11.4599 43.7009C11.162 43.7501 10.0982 43.3247 9.58608 43.2934C9.07394 43.2622 7.51718 43.648 7.2635 43.7153C7.00863 43.7838 6.33375 42.9725 6.88298 42.285L6.19255 41.5169L6.04298 41.3511C6.11358 41.0241 6.037 40.7417 5.87306 40.7273C5.71033 40.7104 5.2963 40.6395 5.26519 40.5986C5.23408 40.5578 5.20177 40.3102 5.19818 40.1395C5.19459 39.97 5.21973 39.3679 5.24366 39.1791C5.26639 38.988 4.66211 38.5638 4.6669 38.3029L4.51972 38.202C4.31032 38.0589 3.94895 38.0746 3.66655 37.988L3.43441 37.9195C3.15441 37.7813 2.94381 37.2933 2.96655 36.833C2.98808 36.3726 2.06551 35.3101 2.03919 35.232L2.07509 35.1935L2.73321 34.4795C2.02483 34.1382 1.1238 33.5697 0.732511 33.2163L0.681059 32.7908L0.618834 32.2752C0.643962 31.6802 0.575758 31.2247 0.466868 31.2643C0.356782 31.304 0.0983185 31.2127 0.0755833 30.9939L0.16054 30.9579C0.42379 30.8425 1.18961 30.8593 0.197637 30.6465C0.152167 30.6369 0.0863539 30.5961 0.0815675 30.5648C-0.0297153 29.8016 -0.111086 29.0335 0.427379 28.346C0.541055 28.2006 0.818664 28.1489 0.983794 28.0227C1.18362 27.8701 1.53542 27.5792 1.49474 27.5299C1.02927 26.9722 1.84414 27.3436 1.89918 27.1429C1.97457 26.8676 2.08107 26.5611 2.30005 26.3592C2.7021 25.9914 3.17715 25.6705 3.65578 25.364L3.94895 25.1765C4.11407 24.9037 4.68485 24.2017 5.21853 23.6188L6.19136 23.7582L6.27392 23.7702C6.39358 23.6464 6.62572 23.3892 6.78965 23.2005C6.95358 23.0106 7.56265 22.7101 7.65479 22.5058C7.74453 22.3026 8.67548 22.3051 8.97223 22.1332C9.27018 21.9601 9.73565 21.3856 10.0432 21.6464L10.3567 21.2425L10.3782 21.2149C10.1461 21.0286 10.164 20.8759 10.4189 20.8759C10.675 20.8759 11.2146 20.6824 11.1536 20.4468L11.2218 20.3194L11.4109 19.9697C11.8321 19.9937 12.1958 19.8831 12.2186 19.7245C12.2413 19.567 12.6888 19.2173 12.9844 19.0658C13.2812 18.9144 14.3569 18.7052 14.6943 18.6163C15.033 18.5273 15.6695 17.9408 15.8323 17.8999C15.995 17.8615 16.5263 17.8074 16.5191 17.5694L16.5383 17.4047L16.5466 17.329C16.6089 17.2485 17.1437 17.1511 17.7349 17.1127V17.0574L17.7373 16.5045C18.2685 16.4143 19.0284 16.1343 19.4244 15.8807L19.8086 15.6751L20.0455 15.5477C20.3674 15.5525 20.8532 15.4371 21.1248 15.2905L21.3892 15.1727C21.6968 15.0357 22.0199 14.9191 22.3178 14.7701C22.5799 14.6403 22.8024 14.454 23.0717 14.3386C23.244 14.264 23.4689 14.2713 23.6711 14.2448C24.2682 14.1691 24.8115 14.0657 25.0688 13.5104C25.1741 13.2857 25.4804 13.0958 25.7484 12.9599C25.8585 12.9034 26.0201 13.3109 26.3204 13.0128L26.5621 12.7736C26.9067 12.5681 27.432 12.5537 27.7288 12.7412L27.9681 12.3926C28.0375 12.2929 28.1177 12.1991 28.1895 12.0993L28.2397 12.0296C28.2888 11.9479 28.5461 11.8734 28.8117 11.8614C29.0785 11.8505 29.7522 11.4443 29.9628 11.4936C30.1734 11.5428 30.6365 11.133 30.8483 11.1919L31.0505 11.0741C31.1271 11.0296 31.2958 11.0549 31.3329 11.0056L31.9862 10.1137C33.1876 9.64257 34.2921 9.18583 34.4405 9.09929C34.5888 9.01275 35.284 8.8577 35.6765 8.71827C36.0702 8.57885 36.9689 7.97067 37.14 8.06442C37.3099 8.15817 37.9189 8.35529 38.2121 8.04398L38.5723 7.92139L38.9265 7.79999C39.4446 7.85287 39.8024 7.79758 39.721 7.67739C39.6384 7.5572 39.733 7.18219 40.1602 7.17618L40.3588 7.04757L40.628 6.87329C40.8039 6.98387 41.3161 6.87209 41.7648 6.62329L42.1776 6.40573L42.3056 6.33842C42.5342 6.37568 42.6383 6.48867 42.5354 6.58963L42.4684 6.6918C42.4588 6.70742 42.6036 6.83362 42.6634 6.82641L42.8082 6.81199C42.9494 6.7543 43.1528 6.40573 43.2605 6.03553L43.7487 5.8901C44.5923 5.63649 45.5723 5.62687 46.2125 4.98984C46.2556 4.94657 46.4207 4.97422 46.5272 4.98624L46.8922 5.0247C47.2918 5.07398 47.7501 5.03552 47.9105 4.93936C48.072 4.84321 48.8378 4.58839 49.2459 4.47541C49.6539 4.36243 50.6471 3.94776 50.7943 4.04752C50.9414 4.14848 51.4033 4.36603 51.4213 4.25906C51.4392 4.15209 51.8748 4.02108 52.2649 3.99944C52.6562 3.9766 53.8958 3.59318 54.2261 3.49462C54.5551 3.39606 55.3868 3.85521 55.4897 3.84199C55.5926 3.82997 56.3333 4.19896 56.8885 4.54152C57.4437 4.88407 59.8094 4.32156 60.5237 4.1569L61.2812 4.32517L61.8591 4.45498C62.5914 4.30834 63.3477 4.17012 63.5379 4.14728C63.7282 4.12444 64.4127 4.35401 64.6017 4.26868C64.7908 4.18214 65.3113 4.13646 65.3149 4.36964C65.3173 4.60282 66.1704 4.32036 66.3092 4.28791L66.3918 4.32637L66.9279 4.57517C67.4316 4.92975 68.0395 5.3937 68.2752 5.60404C68.5134 5.81558 69.3211 6.15573 69.2457 6.22785C69.1703 6.30116 69.2134 6.73386 69.4647 7.07522L69.6741 7.39373L70.1156 8.07163C70.9209 8.62933 71.4414 9.19905 71.2739 9.33607C71.1064 9.4731 70.8431 9.97671 71.0944 10.1245L71.3457 10.1858L71.4079 10.2027C71.5922 9.95147 71.9727 9.92262 72.2539 10.1366L72.4717 10.3577C72.5459 10.4334 72.4968 10.5897 72.5088 10.7087C72.5351 10.9635 71.6736 10.5849 72.0948 11.0753C72.37 11.395 72.1055 11.5164 71.9284 11.7279L71.7621 11.9251C71.6377 12.2364 71.7286 12.6222 71.9643 12.782C72.2001 12.9419 72.3054 13.7196 72.37 13.8157C72.4334 13.9131 73.0903 14.8145 73.6671 15.6054L73.5295 16.5057C73.4553 16.9949 73.4984 17.4564 74.0966 17.7749L74.2869 17.8759C74.391 18.1055 74.543 18.4492 74.6244 18.6403C74.7069 18.8302 75.6211 19.0959 75.9382 19.1848L75.9861 19.3278C76.1332 19.7641 76.3534 19.7738 76.7471 19.5442C76.7938 19.5165 76.9445 19.5742 77.0199 19.6211L77.1468 19.7016C77.3083 19.8435 77.337 20.0033 77.209 20.0574C77.0821 20.1115 76.862 20.4601 77.0044 20.7113L77.0833 20.8783L77.1743 21.0683C77.258 21.2822 77.3478 21.5274 77.3753 21.6127C77.4016 21.6993 77.0714 22.4709 76.7148 23.2858L75.9167 23.8532L75.5134 24.1404C75.3267 24.7041 75.0791 25.3195 74.9642 25.5094C74.8481 25.6993 73.9435 26.3821 73.6216 26.8003L73.2219 26.9085C72.5411 27.0912 73.277 27.2631 73.137 27.3905C72.9551 27.5527 72.7672 27.7126 72.565 27.858L72.0565 28.2186C71.4965 28.6141 70.8922 29.1177 70.7163 29.3376C70.5392 29.5564 69.8081 30.0888 69.8799 30.3052C69.9517 30.5203 68.8891 30.8773 68.5002 31.1574L68.1783 31.4398L67.8146 31.7596C67.2605 32.2031 67.0559 32.5288 67.3587 32.4867C67.6614 32.4435 68.9286 31.8653 69.8954 31.429L70.8563 31.1742L71.3828 31.0336C71.3517 30.6285 71.3481 30.2283 71.3744 30.1453L71.4306 30.1273C71.524 30.1009 71.7035 30.0888 71.7358 30.1297L71.8435 30.2643C71.95 30.5011 72.1977 30.5155 72.3939 30.298L72.553 30.1237C72.6344 30.0336 72.7349 29.8617 72.8019 29.8677L73.5989 29.9578C73.9961 29.4698 74.4568 28.8893 74.622 28.6657C74.7859 28.4434 75.998 28.316 76.442 28.0612L76.9601 27.9915C77.1922 27.9614 77.4184 27.8184 77.6027 27.6862L77.6433 27.6585C77.5249 27.4758 77.5464 27.3304 77.69 27.3352C77.8348 27.3388 78.3673 27.2631 78.4714 27.1537C78.5755 27.0443 79.0003 26.5071 79.1259 26.2631L79.6273 26.3712C79.8702 26.4229 80.3321 26.0455 80.575 25.7859L80.7832 25.5611C81.0644 25.3989 81.3516 25.2474 81.421 25.2246C81.4892 25.2041 81.8039 25.1837 82.0552 25.138C82.3065 25.0936 83.1273 24.6825 83.4097 24.4121L83.5964 24.1272C83.795 23.8255 84.1193 24.6416 84.2019 24.0695C84.288 23.4721 84.629 24.102 84.7415 23.983L84.9844 23.7282C85.1699 23.888 85.3578 23.8387 85.3996 23.6176L85.5193 23.4577L85.6031 23.3495C85.8149 23.2967 86.2971 23.2257 86.6752 23.1933C87.0533 23.1596 87.9735 22.4853 88.2188 22.2233L88.4833 22.0226L88.5395 21.9793C88.7896 22.0791 89.0145 22.0526 89.0397 21.924C89.0648 21.7942 89.2634 21.3375 89.3675 21.4985C89.4704 21.6584 89.8426 21.8423 90.0651 21.7029C90.2877 21.5647 90.6826 21.2966 90.7508 21.0298L91.2187 21.0646L91.5358 21.0899C91.8887 20.9228 92.3159 20.5875 92.4859 20.3423L92.8664 20.2425C93.0554 20.192 93.144 20.0454 93.3438 20.2365L93.4204 20.3098C93.613 20.317 94.0055 20.1091 94.2915 19.8483L94.7522 19.7509L95.1686 19.6632C95.5575 19.3615 96.3113 18.9552 96.8426 18.7581C97.3739 18.561 99.2741 18.1692 99.8138 18.0778L100.205 17.7305L100.629 17.3542C101.295 17.2341 101.933 17.3386 102.047 17.5862C102.16 17.8338 102.489 18.4684 102.531 18.4588C102.574 18.448 102.654 18.305 102.616 18.1607C102.578 18.0165 102.422 17.4636 102.39 17.2449L103.109 16.841C103.699 16.5069 104.652 16.6944 104.946 15.9816C104.959 15.9516 105.198 15.9335 105.259 15.978C105.787 16.359 105.713 16.6223 105.003 16.9708L104.981 16.9816C104.981 17.0261 105.551 16.9828 106.248 16.8867L106.559 16.7821C106.88 16.6739 107.269 16.6018 107.604 16.6427L108.161 16.7088C108.271 16.347 108.435 16.1535 108.525 16.2809C108.615 16.4071 108.988 16.7665 109.041 16.6367C109.092 16.5057 109.147 15.865 109.158 15.3566L110.108 14.6451L110.267 14.5273C110.43 14.389 110.635 14.4804 110.723 14.7316C110.812 14.9816 111.589 15.4383 112.03 15.2136C112.469 14.99 113.904 14.8073 113.904 14.6391C113.904 14.4708 113.792 13.9804 113.657 14.2064C113.522 14.4323 112.76 14.389 112.7 14.2725L112.714 14.1595C112.738 13.9852 112.517 13.514 113.153 13.8914L113.256 13.9527C113.773 13.6042 114.245 13.508 114.306 13.7388L114.32 13.8926L114.337 14.0633C114.331 14.2809 114.446 14.4588 114.594 14.4588C114.742 14.4588 115.228 14.228 115.331 13.9455C115.433 13.6643 115.94 12.8734 116.134 13.0789C116.329 13.2845 117.078 13.6462 117.351 13.4131L117.609 13.2953L117.952 13.1378C118.368 13.0248 118.965 12.8974 119.278 12.8554L119.581 12.9131C120.006 12.996 120.407 12.901 120.74 12.657C120.87 12.5609 120.996 12.4623 121.124 12.365L122.064 11.7568L122.249 11.6943C122.45 11.6246 123.089 11.4407 123.668 11.2856C124.248 11.1306 125.878 10.7303 126.329 10.6738C126.78 10.6173 128.156 10.5729 128.373 10.6173C128.591 10.6618 128.635 11.2436 128.282 11.3746C127.928 11.5068 127.723 12.3758 127.903 12.2508C128.082 12.1258 128.725 12.1138 129.049 12.4191L129.38 12.6306L129.683 12.8241C130.117 12.9311 130.772 13.2448 131.139 13.5212L130.536 13.865L130.415 13.9335C130.472 14.4047 130.637 14.6391 130.782 14.454C130.925 14.2689 131.294 14.0032 131.237 14.3277C131.181 14.6523 130.779 15.1883 131.076 15.228C131.374 15.2689 132.324 15.1367 132.669 15.0681C133.013 14.9996 133.255 14.2352 133.404 14.3578C133.555 14.4804 134.033 14.5369 134.273 14.3253C134.514 14.1138 135.429 13.7436 135.65 13.734C135.873 13.7232 136.299 13.3025 136.543 13.3614L136.768 13.3962L136.909 13.4191C137.072 13.4131 137.163 13.3325 137.111 13.2388C137.059 13.1462 137.344 12.9107 137.724 12.7256C138.105 12.5393 139.336 12.0657 139.557 11.9707C139.779 11.8758 139.956 11.2868 140.001 11.24C140.047 11.1931 140.291 11.1558 140.434 11.2616L140.55 11.3686L140.614 11.4275C140.668 11.5272 140.951 11.2532 141.245 10.8205L141.533 10.4455C141.6 10.3601 141.788 10.2712 141.9 10.2856L142.506 10.3649C142.926 10.0416 143.451 9.64257 143.676 9.47911L143.956 9.48752L144.338 9.49954C144.684 9.36612 145.057 9.20626 145.167 9.14376C145.277 9.08246 145.311 8.67981 145.576 8.50193L145.853 8.43822C146.198 8.35769 146.58 8.37091 146.947 8.3613C147.201 8.35529 146.745 7.65095 147.425 8.04759C147.476 8.07764 147.804 7.79638 148 7.65576C148.132 7.562 148.243 7.44301 148.389 7.36969C148.687 7.21945 149.016 7.10767 149.308 6.95142L149.566 6.81199C149.867 6.82161 150.354 6.6341 150.647 6.39371L150.914 6.17616L151.181 5.95741C151.407 5.77231 151.736 5.63048 151.913 5.6413C152.089 5.65091 152.369 5.51509 152.212 5.31797L152.528 5.10643C152.895 4.86123 153.057 5.0848 153.334 5.20379L153.468 5.26268C153.746 5.10763 154.211 4.79753 154.496 4.57397L154.901 4.9009C155.051 5.0223 155.204 4.86003 155.012 4.51027L154.932 4.36483C154.991 4.2867 155.419 4.05834 155.886 3.85641L156.363 3.79872C156.457 3.7879 156.475 3.37563 156.92 3.354L157.108 3.34558C157.321 3.34678 157.921 3.2927 158.444 3.22419C158.966 3.15568 159.738 1.97777 160.122 1.89724C160.504 1.81791 161.835 1.54867 162.224 1.32271C162.613 1.09674 163.166 0.839528 163.27 0.924866C163.375 1.0102 163.787 1.18809 163.88 1.0715L163.855 1.00299L163.8 0.856356C163.677 0.710921 163.739 0.50659 163.937 0.402021C164.134 0.297452 164.78 0.206104 165.331 0.155622L165.805 0.0799002L166.087 0.0342262C166.354 -0.111209 167.3 0.220527 168.193 0.769816L169.007 1.28305L169.144 1.36838C169.27 1.49098 169.642 1.68209 169.971 1.79387C170.3 1.90685 171.275 1.63882 171.793 1.46814L172.288 1.68209C172.837 1.91888 173.367 2.17369 174.033 2.07994C174.207 2.0559 175.636 2.84197 175.858 2.94774C176.028 3.02947 176.308 2.94654 176.496 3.01625C176.725 3.09918 176.892 3.35039 177.116 3.38044C177.653 3.45015 177.461 3.76266 177.449 3.9766L177.441 4.12084C177.281 4.27348 177.078 4.58599 176.988 4.81436C176.899 5.04393 177.76 5.7699 177.611 5.86125C177.463 5.9514 177.214 6.43698 177.338 6.76752C177.463 7.09805 178.415 7.65936 178.292 7.86369C178.169 8.06682 177.926 8.66659 178.025 8.74712C178.123 8.82765 178.301 9.11492 178.25 9.24713C178.199 9.37934 178.066 9.76997 177.997 9.83248C177.928 9.89498 177.578 9.92262 177.451 10.0849L177.499 10.1462L177.744 10.4587C178.06 10.7748 178.36 11.002 178.412 10.9647C178.462 10.9287 178.756 10.8409 178.741 11.008C178.727 11.1738 178.628 11.5693 178.59 11.6041C178.551 11.6378 178.51 11.9154 178.594 12.1438C178.677 12.3722 178.859 13.4155 178.992 13.9395L179.356 14.3818L179.555 14.6222C179.465 15.0525 179.763 15.5465 180.215 15.722L180.608 15.8915L180.698 15.9323C181.037 16.2172 181.178 16.5285 181.012 16.6235C180.846 16.7172 180.757 17.0441 180.783 17.2978C180.81 17.5514 180.216 18.5213 180.046 19.0406L179.235 19.0418H179.052C178.807 19.3122 178.896 19.6956 179.252 19.8916L179.533 20.0286C179.665 20.0935 179.659 20.0754 179.812 19.7281C179.873 19.5899 180.006 19.3771 180.124 19.3675C180.818 19.3158 181.256 18.3855 182.124 18.9757L183.621 18.1367L183.682 18.079C183.747 18.0165 184.038 17.9192 184.329 17.8615C184.617 17.8038 185.308 17.4035 185.419 17.2929C185.53 17.1812 186.569 17.1451 186.928 16.8687L187.243 16.6259L188.62 16.3614L188.865 16.6547C189.116 16.4864 189.6 16.1463 189.94 15.8999C190.28 15.6547 191.343 14.7052 191.497 14.2893L192.119 14.6992C192.494 14.9468 193.083 14.5669 193.448 14.9732L193.498 15.0285C193.752 14.9588 194.232 14.6667 194.566 14.3794L195.061 14.2136C196.533 13.7232 196.802 13.5345 197.471 13.8289L198.074 14.0958C198.762 14.0621 199.253 13.9131 199.167 13.7628C199.079 13.6126 199.265 13.0885 199.71 12.8265C200.156 12.5633 201.823 11.9828 201.983 11.9383L202.168 12.0525C202.4 12.1955 202.693 12.2075 202.717 11.8794C202.743 11.526 203.087 11.5368 203.278 11.6126L204.076 11.9263C204.921 11.77 205.609 11.4479 205.608 11.2099C205.606 10.9731 206.773 10.6991 207.502 10.5681L208.057 10.3048C208.394 10.1438 208.814 10.0897 209.202 10.0164L209.526 9.95628C209.801 9.70747 210.105 9.61733 210.202 9.75435C210.299 9.89017 210.655 10.2231 210.77 10.1798L210.83 10.133L211.14 9.88777C211.464 9.60651 212.012 9.5392 212.358 9.73752L212.579 9.27117C212.612 9.20266 213.061 9.24232 213.309 9.27718L213.452 9.29641C213.598 9.30362 213.968 9.19665 214.276 9.06083C214.585 8.92501 215.845 8.95506 216.457 9.06684L216.893 8.61851C217.049 8.45745 217.154 8.41539 217.368 8.58967L217.459 8.66178C217.701 8.61611 218.094 8.49471 218.335 8.39255C218.575 8.29038 219.724 8.25913 220.184 8.09206L220.302 8.18581L220.823 8.59568C221.188 8.30721 221.81 7.95023 222.205 7.80119L222.578 7.68821C222.633 7.67258 222.73 7.73268 222.801 7.76754C223.541 8.12932 223.595 8.17139 223.897 7.90456L224.279 7.56681C224.648 7.73508 225.091 7.91658 225.263 7.97066C225.434 8.02475 225.835 7.53917 225.967 7.37811L226.086 7.38171C226.511 7.39253 226.314 7.69181 226.365 7.87811L226.388 7.95744C226.421 8.02475 226.989 7.83244 227.645 7.53075L228.258 7.27714C228.945 6.99348 228.683 7.10526 229.041 7.73989L229.376 8.33245C228.963 8.31562 228.846 8.47668 229.116 8.69183L229.298 8.65938C229.607 8.60529 230.047 8.19062 230.116 8.2375C230.456 8.46947 230.85 8.53918 231.118 8.34206C231.449 8.09687 231.519 8.32764 231.721 8.40817L231.8 8.44063C231.977 8.32764 231.929 8.13293 231.695 8.00913L232.097 7.91177C232.199 7.88653 232.451 8.04519 232.499 8.15817C232.577 8.34687 232.593 8.50433 232.833 8.26995L232.884 8.21827C232.86 8.03317 233.333 8.00432 233.935 8.15456C234.537 8.3048 235.604 9.31324 235.422 9.43103C235.239 9.54762 235.044 10.0608 235.255 10.2808C235.465 10.4996 236.213 11.008 236.464 10.9359C236.714 10.8661 237.374 10.5777 237.374 10.4539C237.374 10.3301 237.771 10.0753 238.257 10.1534L237.735 10.6847L237.475 10.9515C237.842 11.2928 238.265 11.6474 238.415 11.74C238.564 11.8337 238.009 12.3818 237.888 12.2832C237.767 12.1847 237.448 11.9791 237.422 12.0248C237.395 12.0705 237.379 12.3037 237.38 12.5393C237.38 12.776 238.499 13.1114 238.948 13.3422L238.428 13.8374L238.298 13.9624C238.56 14.353 238.932 14.7701 239.127 14.8867C239.319 15.002 239.432 15.5141 239.608 15.6343C239.784 15.7533 239.337 16.2569 239.251 16.3614C239.164 16.466 239.193 16.823 239.299 16.7629L239.384 16.6992L239.505 16.6114C239.675 16.4684 239.925 16.4828 240.059 16.6415C240.194 16.8001 240.339 17.3374 240.143 17.5502C239.946 17.7641 239.017 17.9468 238.692 17.948C238.367 17.948 237.398 18.1007 237.398 18.2882C237.398 18.4733 237.247 18.954 237.061 18.8963L237.065 18.8819L237.144 18.5129C237.184 18.0874 237.058 17.7377 236.864 17.7377C236.671 17.7377 236.184 17.7677 236.194 17.8038C236.205 17.8422 236.306 18.1139 236.383 18.311C236.458 18.5081 235.488 18.9132 235.639 18.7713L235.645 18.692C235.661 18.454 235.742 18.0718 235.605 18.0033C235.194 17.7978 235.215 18.1632 235.045 18.3567C234.821 18.6103 234.415 18.7701 234.056 18.9216C233.918 18.9805 233.693 18.9168 233.511 18.8915L233.325 18.8651C233.135 18.8206 232.504 18.9997 231.922 19.2653L231.44 19.549C231.238 19.6692 230.611 19.781 231.172 20.1704L231.175 20.1728C231.09 20.2557 230.636 20.4264 230.166 20.5502C229.694 20.6752 228.824 21.5767 228.726 21.6139C228.627 21.6524 228.071 21.5478 227.549 21.43L227.351 21.8976L227.152 22.3652C226.737 22.2834 226.346 22.3159 226.285 22.4373C226.223 22.5575 225.916 22.9229 225.812 22.9842L225.733 22.9697C224.744 22.7954 223.999 23.2041 223.613 23.8279L223.37 24.2198C222.972 24.4097 222.599 24.4854 222.542 24.388C222.483 24.2907 221.781 24.1945 221.103 24.3832L220.499 24.5695L220.383 24.6056C220.296 24.715 220.011 25.0671 219.75 25.3904C219.49 25.7114 219.21 26.5311 219.266 26.2907C219.323 26.0491 218.999 25.4962 218.746 25.5996C218.493 25.703 218.06 26.5167 217.959 26.2655L217.8 26.1909C217.545 26.0719 217.318 26.1453 217.275 26.4578C217.263 26.5443 216.984 26.6681 216.825 26.6705L215.846 26.6789C215.219 27.2607 214.153 27.9878 213.477 28.2931L212.774 28.4049C212.752 28.4085 212.723 28.6201 212.771 28.6477C213.162 28.8641 213.027 29.0371 212.735 29.221C212.607 29.3028 212.522 29.4506 212.384 29.4891L212.22 29.5348C212.008 29.5131 211.88 29.31 211.933 29.0816L211.987 29.0804L212.462 29.0744C212.394 28.7907 212.178 28.6213 211.983 28.7006C211.789 28.7775 211.252 29.1225 211.133 29.2162C211.012 29.3112 210.527 29.1129 210.409 29.1573C210.29 29.2006 209.344 29.7126 208.556 30.1538L207.852 30.566L207.617 30.7042C207.359 30.6405 207.059 30.6514 206.952 30.7259C206.844 30.8028 206.803 30.9975 207.093 31.0083C207.381 31.0167 208.172 31.0648 208.256 31.2031C208.339 31.3413 208.465 31.8581 208.279 31.9086L208.13 31.9759L207.995 32.0372C207.853 32.1394 207.691 32.1466 207.636 32.0516C207.581 31.9579 207.161 31.9495 206.858 32.304L206.635 32.6298C206.58 32.7103 206.68 32.8641 206.715 32.9819L206.743 33.0769C206.781 33.179 206.666 33.2716 206.485 33.2836L206.381 33.2247C206.134 33.0865 205.836 32.9903 205.639 33.0264L205.536 33.0468C205.415 33.0372 205.116 32.9951 204.872 32.9519C204.627 32.9074 204.269 32.2932 203.803 32.2187L203.461 32.3257L202.767 32.5444C202.312 33.1177 201.8 33.3473 201.627 33.0577L201.504 33.0601C201.287 33.0649 200.995 33.2127 200.88 33.3702L200.682 33.6466C200.565 33.9976 200.516 34.4279 200.573 34.6033L200.626 34.6021L200.951 34.5973C201.031 34.7981 201.05 35.0649 200.991 35.1899C200.935 35.3149 200.598 35.637 200.446 35.4892C200.294 35.3413 200.029 34.8293 199.867 34.6214L199.539 34.6142L199.376 34.6094C199.334 34.4735 199.304 34.3221 199.309 34.2728C199.314 34.2223 199.137 34.1142 198.908 34.1454L198.905 34.1839L198.846 34.9002C198.116 34.9507 197.637 35.1611 197.783 35.3678C197.931 35.5733 198.783 35.6851 198.84 35.8858C198.896 36.0854 198.885 36.7212 198.664 36.7705C198.442 36.8197 197.862 35.9099 197.513 35.524L196.864 36.0866L196.72 36.2128C196.446 36.2933 196.32 36.3906 196.44 36.4291C196.559 36.4688 196.612 36.6959 196.302 36.8546C195.994 37.0132 196.381 37.8113 196.151 37.9916L196.005 37.9616L195.68 37.8919C195.271 37.6623 194.974 37.5902 195.023 37.7308C195.071 37.8726 195.071 38.2753 194.91 38.2993C194.751 38.3258 194.268 38.5577 194.415 38.7236C194.562 38.8883 194.703 39.4159 194.341 39.4592L194.174 39.3606L193.973 39.2417C193.954 38.9496 193.899 38.6154 193.85 38.4965C193.8 38.3787 193.917 37.8234 194.23 37.5349C194.541 37.2476 194.353 36.3366 194.13 36.458C193.906 36.5781 193.403 37.0529 193.461 37.2681C193.52 37.482 193.483 37.9784 193.261 37.8823C193.041 37.7873 191.822 38.5373 191.558 38.4772L191.328 38.3967L191.105 38.321C190.834 38.2765 190.483 38.2993 190.325 38.3702C190.168 38.44 190.057 39.0686 190.02 39.3246H189.977C189.296 39.3354 189.526 39.7681 189.411 40.0554L189.347 40.2092C189.107 40.3595 188.87 40.3859 188.822 40.2693C188.774 40.1515 188.523 39.9748 188.367 40.1371C188.212 40.3006 187.643 40.6864 187.416 40.6672C187.188 40.6455 187.308 41.1996 187.379 41.2597C187.45 41.3198 187.52 41.5903 187.556 41.7513C187.592 41.9136 188.336 42.1299 188.506 42.2189C188.676 42.3066 188.78 42.7814 188.359 43.0554L187.939 42.5362L187.789 42.3523C187.451 42.2477 187.127 42.1648 187.069 42.1684C187.012 42.172 186.526 42.2814 186.12 42.3968L186.187 42.8679L186.232 43.1732C186.008 43.0302 185.572 42.8595 185.262 42.7958L185.231 43.1696C185.218 43.3211 185.132 43.4797 185.025 43.6035L185.001 43.6336C184.79 43.5614 184.595 43.3944 184.569 43.2634C184.543 43.1324 184.735 42.654 184.89 42.4629L185.067 42.3126C185.12 42.2669 185.31 42.3294 185.364 42.285C185.46 42.2032 185.561 42.0722 185.545 41.9761C185.529 41.8931 185.357 41.7826 185.242 41.7717L184.938 41.7429C184.542 41.7537 184.28 41.9016 184.354 42.0734C184.427 42.2441 183.903 42.4689 183.587 42.4508L183.297 42.4184C183.29 42.4172 183.312 42.3319 183.294 42.2922L183.068 41.7838C182.508 41.6323 181.902 41.5446 181.725 41.5915L181.696 41.672C181.663 41.7669 181.732 41.934 181.829 42.0073L182.547 42.5494C182.788 43.0398 183.093 43.517 183.228 43.6095L183.342 43.5987C183.445 43.5891 183.57 43.4605 183.611 43.3643L183.679 43.1985C183.731 42.8643 184.158 43.2862 184.628 44.1336L185.319 44.5939C185.547 44.7466 185.798 44.749 185.893 44.4377L185.922 44.3415C186.015 44.2514 186.22 44.13 186.378 44.0699C186.535 44.011 187.022 44.0266 187.087 43.8848C187.152 43.7405 187.548 43.5831 187.821 43.8463C188.093 44.1119 188.603 44.7802 188.354 44.7502C188.107 44.7201 187.494 45.3103 187.082 45.4425L186.769 45.6612L186.736 45.6841C186.596 45.6336 186.528 45.5002 186.585 45.3896C186.642 45.279 186.673 44.9665 186.516 44.9665C186.358 44.9665 186.097 45.2886 186.149 45.6853L186.028 45.9834L185.913 46.2682C186.052 46.3187 186.045 46.4978 185.898 46.6673C185.75 46.8379 185.113 47.0242 184.735 46.7887L184.45 46.8175C183.826 46.8812 184.061 46.3848 183.775 46.2658C183.359 46.0939 183.344 46.0867 183.504 45.9617C183.804 45.731 183.983 45.368 184.601 45.6913L184.853 45.8235C185.046 45.3788 184.845 45.0062 184.407 44.9954C183.969 44.9857 182.913 45.4305 182.498 45.6985L182.367 46.0134L182.261 46.2694C182.442 46.6228 182.693 47.0327 182.819 47.1805C182.944 47.3271 182.405 47.7442 181.857 47.5928L181.355 47.4449L181.339 47.4413C181.213 46.8632 181.135 46.38 181.165 46.3644L180.987 46.6108C180.706 46.999 180.793 46.9966 181.229 47.1288C181.413 47.1841 181.61 47.392 181.82 47.2995L181.942 47.2466C181.964 47.0399 181.907 46.6324 181.814 46.3415C181.719 46.0519 181.835 45.3367 181.625 45.4317L181.468 45.4557L181.23 45.493C181.164 45.9882 181.068 46.6576 181.017 46.9834C180.967 47.3079 181.006 47.8464 181.427 47.9882L181.734 48.1144C182.143 48.2863 182.122 48.338 181.609 48.6445L181.535 48.6901C181.504 48.7851 181.442 48.987 181.396 49.1397C181.352 49.2911 181.123 49.5784 180.973 49.5664C180.821 49.5531 180.232 49.731 179.982 49.987L179.571 49.9606L179.258 49.9426C179.144 50.1277 178.887 50.4209 178.688 50.5928C178.488 50.7647 177.689 50.9618 177.449 50.9402C177.208 50.9161 176.916 50.4414 177.032 50.3765C177.149 50.3128 177.431 49.963 177.204 49.8488L177.044 49.7466C176.813 49.5976 176.678 49.4173 176.941 49.2082L177.153 49.0411C177.466 48.9966 177.963 49.0243 178.254 49.1C178.546 49.1769 179.126 48.3584 179.2 48.2827C179.275 48.207 179.882 47.9894 180.226 47.85L179.856 47.5531C179.747 47.4654 179.624 47.3812 179.49 47.3223L179.367 47.2682C179.197 47.237 179.15 47.1336 179.266 47.0399C179.38 46.9461 179.69 46.5747 179.572 46.5254C179.455 46.475 179.008 46.5146 178.82 46.7165C178.632 46.9173 178.208 48.0471 177.928 48.1C177.647 48.1529 176.822 48.2202 176.905 48.0952C176.988 47.9714 177.104 47.5315 177.073 47.3764L176.975 47.3368C176.873 47.2935 176.61 47.3428 176.562 47.4149L176.375 47.6985C176.222 48.0315 175.809 48.2346 175.457 48.1481L175.133 48.1324C175.058 48.1288 174.909 48.3704 174.894 48.5074L174.881 48.6264C174.986 48.7659 174.893 48.8548 174.676 48.8248L174.528 48.7394L174.311 48.6144C174.112 48.4305 174.063 48.2262 174.202 48.1613C174.341 48.0952 174.571 47.6324 174.623 47.3368L174.535 47.0952L174.44 46.844C174.566 46.642 174.664 46.4401 174.658 46.3932C174.652 46.3476 174.901 46.0927 175.177 45.8379C175.454 45.5819 176.768 44.8595 177.175 44.6047C177.581 44.3499 178.697 43.7081 178.766 43.761L178.753 43.8211L178.695 44.0867C178.613 44.3571 178.633 44.4881 178.74 44.38C178.846 44.2694 179.38 44.0939 179.456 44.0494C179.533 44.0038 180.03 43.9316 180.39 43.9941L180.391 43.5494V43.0674C180.745 42.6347 181.109 42.2225 181.201 42.1504C181.293 42.0806 181.263 41.9809 181.176 42.0073C181.09 42.0338 180.629 42.0494 180.386 42.0758C180.143 42.1023 179.848 42.7321 179.618 42.8331L179.565 42.7886L178.941 42.2778Z" fill="#149BB0"/>
</svg>
